SplineFontDB: 3.0
FontName: Coda-Heavy
FullName: Coda-Heavy
FamilyName: Coda
Weight: Black
Copyright: Copyright (c) 2009 by vernon adams. All rights reserved.
Version: 1.000;PS 001.001;hotconv 1.0.56
ItalicAngle: 0
UnderlinePosition: -103
UnderlineWidth: 102
Ascent: 1638
Descent: 410
sfntRevision: 0x00010000
LayerCount: 2
Layer: 0 0 "Back"  1
Layer: 1 0 "Fore"  0
NeedsXUIDChange: 1
XUID: [1021 14 500265001 1323849]
FSType: 256
OS2Version: 2
OS2_WeightWidthSlopeOnly: 0
OS2_UseTypoMetrics: 1
CreationTime: 1313148003
ModificationTime: 1317671800
PfmFamily: 17
TTFWeight: 900
TTFWidth: 1
LineGap: 0
VLineGap: 0
Panose: 2 0 5 5 2 0 0 2 0 4
OS2TypoAscent: 72
OS2TypoAOffset: 1
OS2TypoDescent: 2
OS2TypoDOffset: 1
OS2TypoLinegap: 0
OS2WinAscent: 0
OS2WinAOffset: 1
OS2WinDescent: -149
OS2WinDOffset: 1
HheadAscent: -440
HheadAOffset: 1
HheadDescent: 298
HheadDOffset: 1
OS2SubXSize: 1331
OS2SubYSize: 1228
OS2SubXOff: 0
OS2SubYOff: 153
OS2SupXSize: 1331
OS2SupYSize: 1228
OS2SupXOff: 0
OS2SupYOff: 716
OS2StrikeYSize: 102
OS2StrikeYPos: 780
OS2Vendor: 'newt'
OS2CodePages: 20000093.00000000
OS2UnicodeRanges: 00000007.00000000.00000000.00000000
Lookup: 258 0 0 "'kern' Horizontal Kerning lookup 0"  {"'kern' Horizontal Kerning lookup 0 subtable"  } ['kern' ('DFLT' <'dflt' > ) ]
MarkAttachClasses: 1
DEI: 91125
KernClass2: 2+ 3 "'kern' Horizontal Kerning lookup 0 subtable" 
 1 A
 1 T
 1 T
 11 a c d e o q
 0 {} -107 {} -17 {} 0 {} 0 {} -102 {}
ShortTable: maxp 16
  1
  0
  334
  142
  5
  137
  4
  1
  0
  0
  0
  0
  0
  0
  3
  1
EndShort

StartChar: numbersign
Encoding: 35 35 4
Width: 1655
Flags: W
HStem: 0 21G<290 487.344 837 1034.34> 419 149<103 381 607 928 1154 1438> 972 163<230 502 731 1049 1278 1559> 1479 20G<613.604 811 1160.6 1358>
LayerCount: 2
Fore
SplineSet
1438 419 m 1
 1121 419 l 1
 1030 0 l 1
 837 0 l 1
 928 419 l 1
 574 419 l 1
 483 0 l 1
 290 0 l 1
 381 419 l 1
 67 419 l 1
 103 568 l 1
 414 568 l 1
 502 972 l 1
 194 972 l 1
 230 1135 l 1
 538 1135 l 1
 618 1499 l 1
 811 1499 l 1
 731 1135 l 1
 1085 1135 l 1
 1165 1499 l 1
 1358 1499 l 1
 1278 1135 l 1
 1589 1135 l 1
 1559 972 l 1
 1242 972 l 1
 1154 568 l 1
 1471 568 l 1
 1438 419 l 1
607 568 m 1
 961 568 l 1
 1049 972 l 1
 695 972 l 1
 607 568 l 1
EndSplineSet
EndChar

StartChar: dollar
Encoding: 36 36 5
Width: 1607
Flags: W
HStem: 3 173<543.966 1053.26> 1340 163<546.642 1028.7>
VStem: 262 208<246.312 436> 281 218<931.377 1289.91> 764 82<-115 1632> 1099 207<1106 1273.18> 1126 207<248.745 611.326>
LayerCount: 2
Fore
SplineSet
764 1632 m 1xc8
 846 1632 l 1
 846 -115 l 1
 764 -115 l 1
 764 1632 l 1xc8
1099 1106 m 1xdc
 1099 1250.39257316 1049.26733348 1322.00052975 922 1334.5 c 0
 884.666666667 1338.16666667 842.333333333 1340 795 1340 c 0
 646.448989788 1340 538.147318189 1348.53179359 511 1227.5 c 0
 503 1191.83333333 499 1141 499 1075 c 0xdc
 499 951.099592197 546.582979914 897.974077449 650.5 877 c 0
 721.510584175 862.667588515 829.956245527 862.744466059 914.5 855 c 0
 1161.83964576 832.342933213 1333 735.134868164 1333 463 c 0
 1333 279.433026787 1294.01177441 142.757359005 1184 74 c 0
 1085.47439659 12.4214978708 945.064907099 3 783 3 c 0
 547.366298374 3 376.172580288 40.8272315938 300.5 202 c 0
 274.833333333 256.666666667 262 329 262 419 c 2
 262 436 l 1
 471 436 l 1
 470.333333333 430 470 424.166666667 470 418.5 c 0
 470 410 470 410 470 402 c 0
 470 265.330571749 526.623697633 195.585863128 645.5 182 c 0
 680.5 178 717.666666667 176 757 176 c 0
 927.45724532 176 1060.29970316 165.718679608 1105.5 292.5 c 0
 1119.16666667 330.833333333 1126 386 1126 458 c 0xea
 1126 601.678905182 1069.22749369 658.505516278 944.5 678.5 c 0
 830.333345447 696.801524776 659.630982497 689.711382636 549.5 716.5 c 0
 374.935382488 758.961663719 281 875.236419213 281 1096 c 0
 281 1334.1392988 363.275622191 1459.75240108 566 1489.5 c 0
 627.333333333 1498.5 697.333333333 1503 776 1503 c 0
 978.448230805 1503 1149.56264355 1487.24980861 1236 1372 c 0
 1283.72846152 1308.36205131 1304.75344671 1220.6829026 1306 1106 c 1
 1099 1106 l 1xdc
EndSplineSet
EndChar

StartChar: percent
Encoding: 37 37 6
Width: 2488
Flags: W
HStem: 126 124<1775.84 2182.6> 503 124<308.841 715.602> 920 123<1776.4 2175.75> 1297 123<309.403 708.753>
VStem: 129 165<638.383 1283.22> 724 167<640.314 1284.87> 1596 165<261.383 906.224> 2191 167<263.314 907.872>
LayerCount: 2
Fore
SplineSet
129 1129 m 2
 129 1297.59033306 173.745160159 1377.62574084 316 1405.5 c 0
 365.333333333 1415.16666667 429.666666667 1420 509 1420 c 0
 691.972168996 1420 837.480308386 1402.63502481 875.5 1266.5 c 0
 885.833333333 1229.5 891 1183.66666667 891 1129 c 2
 891 795 l 2
 891 625.195867521 845.268567215 546.745349104 702.5 518 c 0
 652.833333333 508 588.333333333 503 509 503 c 0
 325.804210871 503 179.239985541 518.969711013 143.5 657 c 0
 133.833333333 694.333333333 129 740.333333333 129 795 c 2
 129 1129 l 2
509 1297 m 256
 455 1297 413.5 1296.16666667 384.5 1294.5 c 0
 330.637021793 1291.40442654 302.546800314 1276.02606019 297.5 1227 c 0
 295.166666667 1204.33333333 294 1172.33333333 294 1131 c 2
 294 782 l 2
 294 683.255735395 290.011353081 634.930382007 384.5 629.5 c 0
 413.5 627.833333333 455 627 509 627 c 256
 563 627 604.5 627.833333333 633.5 629.5 c 0
 685.926949354 632.513043066 715.327724681 645.949522129 720.5 692.5 c 0
 722.833333333 713.5 724 743.333333333 724 782 c 2
 724 1131 l 2
 724 1233.15508437 730.417772724 1288.93001306 633.5 1294.5 c 0
 604.5 1296.16666667 563 1297 509 1297 c 256
1596 752 m 2
 1596 920.59033306 1640.74516016 1000.62574084 1783 1028.5 c 0
 1832.33333333 1038.16666667 1896.66666667 1043 1976 1043 c 0
 2158.972169 1043 2304.48030839 1025.63502481 2342.5 889.5 c 0
 2352.83333333 852.5 2358 806.666666667 2358 752 c 2
 2358 418 l 2
 2358 248.195867521 2312.26856721 169.745349104 2169.5 141 c 0
 2119.83333333 131 2055.33333333 126 1976 126 c 0
 1792.80421087 126 1646.23998554 141.969711013 1610.5 280 c 0
 1600.83333333 317.333333333 1596 363.333333333 1596 418 c 2
 1596 752 l 2
1976 920 m 256
 1922 920 1880.5 919.166666667 1851.5 917.5 c 0
 1797.63702179 914.40442654 1769.54680031 899.026060191 1764.5 850 c 0
 1762.16666667 827.333333333 1761 795.333333333 1761 754 c 2
 1761 405 l 2
 1761 306.255735395 1757.01135308 257.930382007 1851.5 252.5 c 0
 1880.5 250.833333333 1922 250 1976 250 c 256
 2030 250 2071.5 250.833333333 2100.5 252.5 c 0
 2152.92694935 255.513043066 2182.32772468 268.949522129 2187.5 315.5 c 0
 2189.83333333 336.5 2191 366.333333333 2191 405 c 2
 2191 754 l 2
 2191 856.155084372 2197.41777272 911.930013062 2100.5 917.5 c 0
 2071.5 919.166666667 2030 920 1976 920 c 256
1535 1557 m 1
 1152 -38 l 1
 973 -38 l 1
 1358 1557 l 1
 1535 1557 l 1
EndSplineSet
EndChar

StartChar: ampersand
Encoding: 38 38 7
Width: 1647
Flags: W
HStem: 0 156<406.514 1149> 720 148<430.695 1193 1384 1541> 1157 21G<1193 1383.57> 1343 158<452.452 1169.05>
VStem: 145 219<193.94 656.761> 200 218<913.843 1307.44> 1193 191<203.977 720 869 1007 1157 1316.84>
LayerCount: 2
Fore
SplineSet
786 156 m 0xfa
 898.067676405 156 989.309626933 151.772128108 1073.5 167.5 c 0
 1162.08177679 184.048244017 1188.60971304 232.876527568 1191.5 335 c 0
 1192.5 370.333333333 1193 414 1193 466 c 2
 1193 720 l 1
 529 720 l 2
 460.584276448 720 407.209318287 718.418636575 385 674 c 0
 367.857904012 639.715808024 366.095685674 588.879969377 365 533 c 0
 364.333333333 499 364 457.666666667 364 409 c 0
 364 311.517337226 356.688251755 224.856160698 416.5 188.5 c 0
 460.732940679 161.613310568 530.143075852 159.122019253 608 157.5 c 0
 656 156.5 715.333333333 156 786 156 c 0xfa
407 799 m 1
 260.589804682 816.670195987 200 951.127583295 200 1121 c 0
 200 1285.03222646 225.0000425 1401.25002036 333 1453 c 0
 406.696690866 1488.31299771 505.248254057 1496.63017196 619 1499 c 0
 683 1500.33333333 756.333333333 1501 839 1501 c 0
 1037.58661692 1501 1263.2984683 1520.05229756 1343 1400.5 c 0
 1376.76026111 1349.85960833 1384 1280.32948768 1384 1192 c 1
 1383 1157 l 1
 1193 1157 l 1
 1193 1233.32885898 1196.25453582 1295.48696113 1145 1320 c 0
 1102.39819701 1340.37477534 1041.21346012 1340.9361597 971 1342 c 0
 927 1342.66666667 873 1343 809 1343 c 0
 702.732648348 1343 615.8286008 1347.08736105 534.5 1334 c 0
 454.829102969 1321.17939588 424.1736012 1289.10222491 420 1202.5 c 0
 418.666666667 1174.83333333 418 1140.66666667 418 1100 c 0xf6
 418 1046.66666667 418.666666667 1004.66666667 420 974 c 0
 422.204731529 923.291174833 429.398507491 884.843900057 466 874.5 c 0
 481.333333333 870.166666667 503.333333333 868 532 868 c 2
 1193 868 l 1
 1193 1007 l 1
 1384 1007 l 1
 1384 869 l 1
 1541 869 l 1
 1541 720 l 1
 1384 720 l 1
 1384 537.984816564 1391.56503378 383.825168921 1364 246 c 0
 1342.87342934 140.367146724 1299.92312605 78.3534026645 1209.5 43 c 0
 1097.73183012 -0.69883333556 954.688752006 0 784 0 c 0
 542.451171937 0 308.244498463 -10.3387215638 211.5 135.5 c 0
 160.769759364 211.973944839 145 316.001747918 145 451 c 0
 145 596.603755205 190.76777606 694.042087721 276 752 c 0
 314 778 357.666666667 793.666666667 407 799 c 1
EndSplineSet
EndChar

StartChar: quotesingle
Encoding: 39 39 8
Width: 648
Flags: W
HStem: 925 575<191.791 244.245>
VStem: 114 209<1123.72 1481.51> 184 58<926.095 1084.49>
LayerCount: 2
Fore
SplineSet
218 1500 m 0xc0
 284.115396459 1500 323 1448.12865895 323 1380 c 0xc0
 323 1344.88542429 312.39279992 1298.77424958 305 1259.5 c 0
 286.153846655 1159.37981036 263.765147394 1047.31563871 242 953 c 0
 239.150100292 939.700468031 232.12193456 925 219 925 c 0
 194.678801333 925 190.524865037 968.273860182 184 999.5 c 0xa0
 162.030102927 1104.64165028 135.541298897 1225.82742728 119 1335 c 0
 115.666666667 1357 114 1372 114 1380 c 0
 114 1447.93036033 151.827542759 1500 218 1500 c 0xc0
EndSplineSet
EndChar

StartChar: parenleft
Encoding: 40 40 9
Width: 872
Flags: W
HStem: -125 144<560.378 747> 1577 145<559.854 747>
VStem: 127 209<417.317 1180.74>
LayerCount: 2
Fore
SplineSet
127 790 m 256
 127 1075.60881829 190.642978913 1329.67921926 302.5 1509.5 c 0
 371.575889997 1620.54605101 476.216483877 1722 651 1722 c 2
 747 1722 l 1
 747 1577 l 1
 679 1577 l 2
 598.109163344 1577 545.502283262 1530.82648422 507 1481 c 0
 398.074040159 1340.03699315 354.638374374 1108.23824052 339.5 879 c 0
 337.166666667 843.666666667 336 814 336 790 c 0
 336 628.510372482 363.452503067 464.874339388 402 331.5 c 0
 433.269546563 223.307368892 481.570237371 123.756089036 555.5 62.5 c 0
 590.5 33.5 631.666666667 19 679 19 c 2
 747 19 l 1
 747 -125 l 1
 651 -125 l 2
 477.489363324 -125 372.207220898 -26.4436021312 302 81.5 c 0
 188.307320283 256.302495066 127 508.439101177 127 790 c 256
EndSplineSet
EndChar

StartChar: parenright
Encoding: 41 41 10
Width: 873
Flags: W
HStem: -125 144<126 319.053> 1577 145<126 313.185>
VStem: 537 209<413.864 1175.28>
LayerCount: 2
Fore
SplineSet
746 790 m 256
 746 509.21775106 684.216579392 255.570490815 571 81.5 c 0
 500.651856239 -26.6602710333 395.434883572 -125 222 -125 c 2
 126 -125 l 1
 126 19 l 1
 194 19 l 2
 301.620738436 19 366.191146741 99.0338078554 408 175.5 c 0
 478.058923408 303.634083602 516.913881843 486.575836682 531 665 c 0
 535 715.666666667 537 757.333333333 537 790 c 0
 537 1010.25431807 494.730045502 1221.53558278 425.5 1379 c 0
 394.030818114 1450.57696272 350.669381099 1513.71153701 289 1551 c 0
 260.333333333 1568.33333333 228.666666667 1577 194 1577 c 2
 126 1577 l 1
 126 1722 l 1
 222 1722 l 2
 396.852756212 1722 501.576782802 1620.30061499 570.5 1509.5 c 0
 682.729226692 1329.08086342 746 1076.35821861 746 790 c 256
EndSplineSet
EndChar

StartChar: asterisk
Encoding: 42 42 11
Width: 1214
Flags: W
HStem: 915 182<125.71 446.218 772.286 1088.29>
LayerCount: 2
Fore
SplineSet
892 657 m 0
 892 607.905127622 849.561310227 574 800 574 c 0
 753.07427824 574 724.25939785 624.462214502 705.5 661.5 c 0
 658.66766186 753.963847098 636.46080208 879.977059041 607 988 c 1
 571.07251902 856.265903073 548.020833872 684.532358717 465.5 598.5 c 0
 449.833333333 582.166666667 432.666666667 574 414 574 c 0
 364.435057866 574 322 607.908553998 322 657 c 0
 322 697.866851087 355.055372558 739.726514618 377.5 769.5 c 0
 438.495983911 850.413039881 519.316444363 927.316444363 589 997 c 1
 499.431324513 972.969379748 403.629470164 942.118025656 307 924 c 0
 275 918 245.333333333 915 218 915 c 0
 157.59798663 915 112 942.163077564 112 1003 c 0
 112 1059.614797 153.824243715 1097 210 1097 c 0
 274.84924032 1097 343.570929071 1079.65500836 400.5 1065 c 0
 461.991150874 1049.17059482 530.70113169 1026.46313861 590 1012 c 1
 520.27999276 1081.72000724 438.31221621 1159.8307336 377.5 1240.5 c 0
 354.599744427 1270.87789005 322 1311.06250079 322 1353 c 0
 322 1402.09487238 364.438689773 1436 414 1436 c 0
 460.92572176 1436 489.74060215 1385.5377855 508.5 1348.5 c 0
 555.33233814 1256.0361529 577.53919792 1130.02294096 607 1022 c 1
 642.92748098 1153.73409693 665.979166128 1325.46764128 748.5 1411.5 c 0
 764.166666667 1427.83333333 781.333333333 1436 800 1436 c 0
 849.564942134 1436 892 1402.091446 892 1353 c 0
 892 1311.19568686 859.309968367 1270.7581213 836.5 1240.5 c 0
 775.071514458 1159.01323346 694.149918973 1082.14991897 624 1012 c 1
 716.686149609 1034.60637795 814.573845832 1068.51417243 913.5 1087.5 c 0
 946.5 1093.83333333 976.666666667 1097 1004 1097 c 0
 1060.17463032 1097 1102 1059.61193874 1102 1003 c 0
 1102 942.162253393 1056.40197573 915 996 915 c 0
 855.62108738 915 739.498804419 966.750313128 624 997 c 1
 706.942364088 908.528144973 817.54304935 819.708389946 876.5 707.5 c 0
 886.833333333 687.833333333 892 671 892 657 c 0
EndSplineSet
EndChar

StartChar: plus
Encoding: 43 43 12
Width: 1373
Flags: W
HStem: 585 169<195 537 723 1066>
VStem: 537 186<223 585 754 1117>
LayerCount: 2
Fore
SplineSet
723 1117 m 1
 723 754 l 1
 1066 754 l 1
 1066 585 l 1
 723 585 l 1
 723 223 l 1
 537 223 l 1
 537 585 l 1
 195 585 l 1
 195 754 l 1
 537 754 l 1
 537 1117 l 1
 723 1117 l 1
EndSplineSet
EndChar

StartChar: comma
Encoding: 44 44 13
Width: 625
Flags: W
HStem: -231 72<143 262.213> 0 309<217.571 335>
LayerCount: 2
Fore
SplineSet
186 -231 m 0
 170.226890581 -231 156.878068032 -229.523285097 143 -227 c 1
 143 -159 l 1
 215.144508948 -159 281.878444368 -119.729983431 315 -77.5 c 0
 328.333333333 -60.5 335 -41.3333333333 335 -20 c 2
 335 0 l 1
 241.216296455 0 173 60.783103481 173 155 c 0
 173 247.028021336 239.189039696 309 331 309 c 0
 441.280903642 309 497 231.989632604 497 122 c 0
 497 -28.7699569144 410.802954003 -144.551425198 310.5 -199.5 c 0
 272.166666667 -220.5 230.666666667 -231 186 -231 c 0
EndSplineSet
EndChar

StartChar: hyphen
Encoding: 45 45 14
Width: 1260
Flags: W
HStem: 568 186<175 1086>
LayerCount: 2
Fore
SplineSet
1086 568 m 1
 175 568 l 1
 175 754 l 1
 1086 754 l 1
 1086 568 l 1
EndSplineSet
EndChar

StartChar: period
Encoding: 46 46 15
Width: 607
Flags: W
HStem: -37 308<191.046 419.465>
VStem: 147 314<5.52749 228.66>
LayerCount: 2
Fore
SplineSet
304 -37 m 0
 212.122711649 -37 147 25.0733099268 147 117 c 256
 147 209.426377317 210.459627109 271 303 271 c 256
 396.029052734 271 461 210.101534983 461 117 c 256
 461 24.4021341148 396.502509323 -37 304 -37 c 0
EndSplineSet
EndChar

StartChar: slash
Encoding: 47 47 16
Width: 728
Flags: W
HStem: 0 21G<90 287.777> 1479 20G<443.223 641>
VStem: 90 551
LayerCount: 2
Fore
SplineSet
641 1499 m 1
 283 0 l 1
 90 0 l 1
 448 1499 l 1
 641 1499 l 1
EndSplineSet
EndChar

StartChar: zero
Encoding: 48 48 17
Width: 1492
Flags: W
HStem: -37 163<516.705 984.7> 1376 157<505.341 970.957>
VStem: 161 217<261.496 1246.84> 1110 221<249.836 1233.08>
LayerCount: 2
Fore
SplineSet
746 -37 m 256
 424.063494103 -37 240.911506723 45.544496983 186.5 308 c 0
 169.5 390 161 490 161 608 c 2
 161 922 l 2
 161 1235.39588359 223.862913119 1436.56088259 466 1502.5 c 0
 540.666666667 1522.83333333 634 1533 746 1533 c 256
 1057.24414747 1533 1242.28042156 1459.21721674 1302.5 1212 c 0
 1321.5 1134 1331 1037.33333333 1331 922 c 2
 1331 608 l 2
 1331 285.963081886 1278.78870882 71.4511934304 1035.5 -2.5 c 0
 959.833333333 -25.5 863.333333333 -37 746 -37 c 256
746 126 m 0
 912.726095473 126 1031.75118247 159.624675257 1078.5 273.5 c 0
 1120.93486131 376.866969847 1110 527.126548335 1110 674 c 0
 1110 889.253691736 1153.02545257 1153.46491806 1042.5 1279 c 0
 981.640052648 1348.12487847 884.099260839 1376 746 1376 c 0
 575.471155675 1376 454.216892854 1340.39116666 407.5 1223 c 0
 364.987819895 1116.17452179 378 961.197605256 378 812 c 0
 378 600.354910267 337.186909676 346.909968294 446 223.5 c 0
 507.506843366 153.742238622 606.641699022 126 746 126 c 0
EndSplineSet
EndChar

StartChar: one
Encoding: 49 49 18
Width: 669
Flags: W
HStem: 0 21G<274 495> 1309 117<80 272.213> 1479 20G<286.37 495>
VStem: 274 221<0 1309>
LayerCount: 2
Fore
SplineSet
80 1426 m 1
 187.490373177 1426 259.74089326 1443.52176381 313 1499 c 1
 495 1499 l 1
 495 0 l 1
 274 0 l 1
 274 1309 l 1
 80 1309 l 1
 80 1426 l 1
EndSplineSet
EndChar

StartChar: two
Encoding: 50 50 19
Width: 1306
Flags: W
HStem: 1 184<391 1126> 1371 163<423.227 893.148>
VStem: 161 217<1131 1326> 176 215<185 338.49> 945 209<918.538 1318.98>
LayerCount: 2
Fore
SplineSet
1126 185 m 1xd8
 1126 1 l 1
 176 1 l 1
 176 189 l 2
 176 324.375597089 230.130702903 421.262387619 296 497.5 c 0
 401.029608847 619.062047276 556.006810742 707.713797065 702 786 c 0
 780.310709407 827.992699247 858.691239267 872.460405283 912 929 c 0
 934 952.333333333 945 977 945 1003 c 2
 945 1088 l 2
 945 1236.33641372 944.043903271 1335.21527222 823.5 1360 c 0
 787.833333333 1367.33333333 738.666666667 1371 676 1371 c 0
 534.212347387 1371 422.560083203 1380.46029121 391 1270 c 0xd8
 381.666666667 1237.33333333 377.333333333 1191 378 1131 c 1
 161 1131 l 1xe8
 161 1376.33307368 248.020031464 1499.91843278 462.5 1523.5 c 0
 526.166666667 1530.5 597.333333333 1534 676 1534 c 0
 915.736065701 1534 1072.09105485 1501.90861238 1127.5 1320 c 0
 1145.16666667 1262 1154 1185.66666667 1154 1091 c 0
 1154 732.567764902 876.35831961 669.947433455 651 537.5 c 0
 565.64670852 487.336223428 484.404225385 425.307277051 434 338.5 c 0
 413.728485172 303.587946685 386.811820974 270.199043442 390 216 c 0
 390.666666667 204.666666667 391 194.333333333 391 185 c 1
 1126 185 l 1xd8
EndSplineSet
EndChar

StartChar: three
Encoding: 51 51 20
Width: 1346
Flags: W
HStem: -37 163<413.882 910.882> 689 158<609 909.369> 1371 163<416.445 911.833>
VStem: 154 217<168.453 363 1131 1323.8> 965 219<181.026 631.204 895.37 1318.74>
LayerCount: 2
Fore
SplineSet
994 763 m 1
 1133.83435131 714.057977042 1184 588.811205392 1184 403 c 0
 1184 229.006257119 1150.68253413 97.165604949 1047 31.5 c 0
 950.720401651 -29.4770789545 809.29212428 -37 649 -37 c 0
 451.354132859 -37 289.519592349 -22.4524779145 212 96.5 c 0
 169.3123723 162.003428711 154 249.647075456 154 363 c 1
 371 363 l 1
 371 221.296562499 384.571863651 140.952344696 510 130.5 c 0
 546 127.5 592.333333333 126 649 126 c 0
 807.026461893 126 925.275947433 117.276256879 953 245.5 c 0
 961 282.5 965 334.333333333 965 401 c 0
 965 513.58519607 961.112369175 612.426527847 896 655 c 0
 831.77333415 696.99435844 719.176872411 689 609 689 c 1
 609 847 l 1
 734.512602182 847 876.353019657 825.519723384 930 904.5 c 0
 958.976243763 947.159469985 965 1008.917182 965 1087 c 0
 965 1244.43102863 961.432037977 1344.68450763 827.5 1363 c 0
 788.5 1368.33333333 735.666666667 1371 669 1371 c 0
 526.389727445 1371 416.741391123 1381.09486893 385 1270 c 0
 375.666666667 1237.33333333 371 1191 371 1131 c 1
 154 1131 l 1
 154 1376.07136871 240.960630297 1499.84301703 455 1523.5 c 0
 518.333333333 1530.5 589.666666667 1534 669 1534 c 0
 880.821133946 1534 1051.94987121 1515.9457634 1128 1381.5 c 0
 1169.62068985 1307.92056615 1184 1212.14687279 1184 1091 c 0
 1184 911.724387704 1133.90414714 804.971244142 994 763 c 1
EndSplineSet
EndChar

StartChar: four
Encoding: 52 52 21
Width: 1039
Flags: W
HStem: 0 21G<685 906> 392 160<250 685> 1479 20G<522.005 754>
VStem: 685 221<0 392 552 986>
LayerCount: 2
Fore
SplineSet
685 392 m 1
 19 392 l 1
 19 564 l 1
 533 1499 l 1
 754 1499 l 1
 250 552 l 1
 685 552 l 1
 685 986 l 1
 906 986 l 1
 906 0 l 1
 685 0 l 1
 685 392 l 1
EndSplineSet
EndChar

StartChar: five
Encoding: 53 53 22
Width: 1320
Flags: W
HStem: -37 160<405.567 951.814> 800 163<455.56 955.111> 1338 163<406 1130>
VStem: 158 208<164.702 394 641 741.031> 991 216<164.654 761.757>
LayerCount: 2
Fore
SplineSet
167 641 m 1
 187 1501 l 1
 1130 1501 l 1
 1130 1338 l 1
 406 1338 l 1
 376 813 l 1
 376 938.935010657 588.437564214 963 712 963 c 0
 962.830321957 963 1122.47018441 919.327561545 1179.5 727.5 c 0
 1197.83333333 665.833333333 1207 586 1207 488 c 0
 1207 217.730932763 1163.9442012 41.4883029257 953.5 -12.5 c 0
 889.833333333 -28.8333333333 809.333333333 -37 712 -37 c 0
 455.09295243 -37 257.376432124 -21.4052473529 187 162 c 0
 165 219.333333333 155.333333333 296.666666667 158 394 c 1
 366 394 l 1
 366 298.423559972 359.625061199 206.178518972 410 163 c 0
 444.110910025 133.762077121 500.737322499 126.369288687 567 123 c 0
 606.333333333 121 654.666666667 120 712 120 c 0
 819.383279669 118.548874599 921.577301375 118.275995589 962.5 179 c 0
 985.752437168 213.503616443 991 264.895720321 991 326 c 0
 991 377 991 377 991 446 c 0
 991 542.335860903 995.382424523 622.811392478 981.5 695 c 0
 966.48034378 773.102212343 920.765912439 795.663565236 830 798.5 c 0
 798 799.5 758.666666667 800 712 800 c 0
 591.248752798 800 477.559463201 812.499746579 415.5 746.5 c 0
 394.5 724.166666667 382 689 378 641 c 1
 167 641 l 1
EndSplineSet
EndChar

StartChar: six
Encoding: 54 54 23
Width: 1407
Flags: W
HStem: -36 157<436.783 1007.43> 801 163<468.874 1008.38> 1376 157<446.983 975.083>
VStem: 156 221<184.958 765.62 814 1309.65> 1011 217<1131 1342.54> 1052 216<166.177 757.035>
LayerCount: 2
Fore
SplineSet
741 964 m 0xf8
 970.622852786 964 1149.131304 948.236383362 1221 793 c 0
 1259.0028467 710.913851127 1268 606.343417777 1268 479 c 0xf4
 1268 293.70814061 1247.11305338 140.239760042 1150 57 c 0
 1055.63433656 -23.8848543749 900.785640659 -36 721 -36 c 0
 442.309810897 -36 251.189362072 -4.60595862942 186 204 c 0
 166 268 156 351.666666667 156 455 c 2
 156 1041 l 2
 156 1316.9975967 231.999326706 1472.45442304 460.5 1514 c 0
 530.166666667 1526.66666667 613.666666667 1533 711 1533 c 0
 911.058084565 1533 1078.62837905 1519.43866038 1162 1403.5 c 0
 1208.92784367 1338.2409674 1228 1248.41459009 1228 1131 c 1
 1011 1131 l 1
 1011 1254.46272321 1014.36935307 1349.2174293 909.5 1368 c 0
 851.29361184 1378.42502475 787.01754508 1376 711 1376 c 0
 527.985688329 1376 404.085472403 1371.06946328 385 1216 c 0
 379.666666667 1172.66666667 377 1116 377 1046 c 2
 377 814 l 1
 388.564871103 911.144917262 517.361490499 944.545186312 621 957.5 c 0
 655.666666667 961.833333333 695.666666667 964 741 964 c 0xf8
377 525 m 0
 377 413.109678103 373.232090115 321.868722257 393 241 c 0
 415.017697728 150.927600202 472.629089338 126.786814284 581.5 123 c 0
 619.833333333 121.666666667 666.333333333 121 721 121 c 256
 833.6294185 121 954.102669911 108.102669911 1009 163 c 0
 1040.39773101 194.397731007 1047.70574416 248.540144714 1050 314.5 c 0
 1051.33333333 352.833333333 1052 400 1052 456 c 0
 1052 550.84099794 1056.39901629 630.014512928 1039.5 698.5 c 0
 1019.40305835 779.945500384 960.300448565 796.823881896 859.5 799.5 c 0
 821.833333333 800.5 775.666666667 801 721 801 c 0
 626.617721909 801 549.300069008 804.37501362 479 790.5 c 0
 402.308217409 775.363463962 381.32950167 731.100886232 378.5 641.5 c 0
 377.5 609.833333333 377 571 377 525 c 0
EndSplineSet
EndChar

StartChar: seven
Encoding: 55 55 24
Width: 1023
Flags: W
HStem: 0 21G<212 440.445> 1339 160<118 706>
LayerCount: 2
Fore
SplineSet
118 1499 m 1
 927 1499 l 1
 927 1327 l 1
 433 0 l 1
 212 0 l 1
 706 1339 l 1
 118 1339 l 1
 118 1499 l 1
EndSplineSet
EndChar

StartChar: eight
Encoding: 56 56 25
Width: 1417
Flags: W
HStem: -36 157<406.237 1014.78> 713 151<425.189 1008.92> 1376 157<437.841 985.35>
VStem: 146 217<162.049 677.649> 196 199<866.659 1334.48> 1027 199<866.635 1336.01> 1061 215<171.19 686.126>
LayerCount: 2
Fore
SplineSet
296 802 m 1xf2
 214.203036872 861.075584482 196 973.663486707 196 1112 c 0
 196 1360.59212534 281.708024683 1491.0335531 494.5 1520 c 0
 558.166666667 1528.66666667 630.333333333 1533 711 1533 c 256
 950.780167784 1533 1119.98264281 1504.4125899 1191 1336 c 0
 1214.33333333 1280.66666667 1226 1206 1226 1112 c 0xec
 1226 971.987222552 1207.62282157 861.672037801 1125 802 c 1
 1216.51176053 738.645704248 1276 642.362486964 1276 499 c 0
 1276 310.710792968 1268.73608327 144.630877025 1174 57 c 0
 1078.40186348 -31.4282762815 901.830625173 -36 711 -36 c 0
 488.957687115 -36 289.173166699 -32.9030113517 204.5 102 c 0
 160.62405877 171.90404196 146 265.25537665 146 385 c 0
 146 524.635831799 150.379573287 629.359356433 206.5 714 c 0
 226.833333333 744.666666667 256.666666667 774 296 802 c 1xf2
711 713 m 0
 605.095417418 713 510.284097704 714.120360046 421 694 c 1
 372.199309846 650.079378862 363 567.438277509 363 476 c 0
 363 379.092529498 357.061329767 299.244408728 372.5 227.5 c 0
 391.089008686 141.115783166 454.688465112 126.420050324 559 123 c 0
 599.666666667 121.666666667 650.333333333 121 711 121 c 0
 810.27762524 121 891.697774683 117.572477799 962 136.5 c 0
 1080.08820697 168.292978799 1061 317.683121508 1061 472 c 0xf2
 1061 555.890814095 1060.14709671 655.852903288 1018 698 c 1
 921.282751815 711.998549079 818.986783134 713 711 713 c 0
395 1088 m 0xec
 395 1003.85465247 397.117614425 910.984355062 435 863 c 1
 527 863 619 864 711 864 c 256
 803 864 895 863 987 863 c 1
 1024.88665135 910.989758378 1027 1003.84046279 1027 1088 c 0
 1027 1154.66666667 1025.33333333 1207.33333333 1022 1246 c 0
 1014.96611255 1327.59309445 975.564680556 1358.95759528 893.5 1368.5 c 0
 850.5 1373.5 789.666666667 1376 711 1376 c 0
 573.093937067 1376 437.446004255 1390.25245957 407 1282 c 0
 391.86227401 1228.17697426 395 1163.3893996 395 1088 c 0xec
EndSplineSet
EndChar

StartChar: nine
Encoding: 57 57 26
Width: 1416
Flags: W
HStem: -36 157<429.506 968.778> 533 163<398.712 950.928> 1376 157<398.579 979.217>
VStem: 139 216<739.182 1331.31> 179 217<154.203 366> 1039 221<187.206 683 731.38 1312.04>
LayerCount: 2
Fore
SplineSet
695 533 m 0xec
 461.867446377 533 278.237472984 554.378863012 196.5 704 c 0
 152.805755667 783.982684542 139 888.160711237 139 1018 c 0xf4
 139 1204.42397398 160.167561066 1357.25656275 259 1440 c 0
 356.019273125 1521.22543797 511.753239702 1533 695 1533 c 0
 973.690189103 1533 1164.81063793 1501.60595863 1230 1293 c 0
 1250 1229 1260 1145.33333333 1260 1042 c 2
 1260 456 l 2
 1260 179.743857743 1183.97483484 24.4335415432 955 -17 c 0
 885 -29.6666666667 801.666666667 -36 705 -36 c 0
 501.569089005 -36 332.250537954 -22.8075436051 246 93.5 c 0
 197.903398605 158.357538244 179 248.105708457 179 366 c 1
 396 366 l 1
 396 273.662518014 392.392534895 186.356499708 444.5 149.5 c 0
 498.901635751 111.020794225 608.510255159 121 705 121 c 0
 888.014311671 121 1011.9145276 125.930536725 1031 281 c 0
 1036.33333333 324.333333333 1039 381 1039 451 c 2
 1039 683 l 1
 1024.23113211 558.941509705 839.451772892 533 695 533 c 0xec
1039 972 m 0
 1039 1083.8903219 1042.76790989 1175.13127774 1023 1256 c 0
 1000.98230227 1346.0723998 943.370910662 1370.21318572 834.5 1374 c 0
 796.166666667 1375.33333333 749.666666667 1376 695 1376 c 0
 601.070023332 1376 524.604341257 1380.40108531 457 1363.5 c 0
 375.918315563 1343.22957889 360.480903514 1282.57597603 357 1182.5 c 0
 355.666666667 1144.16666667 355 1097 355 1041 c 0
 355 946.15900206 350.60098371 866.985487072 367.5 798.5 c 0
 387.801875768 716.22397715 449.844337529 700.141956788 552 697.5 c 0
 590.666666667 696.5 638.333333333 696 695 696 c 0
 789.382278091 696 866.699930992 692.62498638 937 706.5 c 0
 1013.69178259 721.636536038 1034.67049833 765.899113768 1037.5 855.5 c 0
 1038.5 887.166666667 1039 926 1039 972 c 0
EndSplineSet
EndChar

StartChar: colon
Encoding: 58 58 27
Width: 622
Flags: W
HStem: 134 308<198.046 426.465> 925 308<198.046 426.465>
VStem: 154 314<176.527 399.66 967.527 1190.66>
LayerCount: 2
Fore
SplineSet
311 925 m 0
 219.122711649 925 154 987.073309927 154 1079 c 256
 154 1171.42637732 217.459627109 1233 310 1233 c 256
 403.029052734 1233 468 1172.10153498 468 1079 c 256
 468 986.402134115 403.502509323 925 311 925 c 0
311 134 m 0
 219.122711649 134 154 196.073309927 154 288 c 256
 154 380.426377317 217.459627109 442 310 442 c 256
 403.029052734 442 468 381.101534983 468 288 c 256
 468 195.402134115 403.502509323 134 311 134 c 0
EndSplineSet
EndChar

StartChar: semicolon
Encoding: 59 59 28
Width: 608
Flags: W
HStem: -101 72<119 238.213> 130 309<193.571 311> 925 308<199.046 427.465>
VStem: 149 324<177.491 388.618 975.151 1185.47>
LayerCount: 2
Fore
SplineSet
162 -101 m 0
 146.226890581 -101 132.878068032 -99.5232850968 119 -97 c 1
 119 -29 l 1
 191.144508948 -29 257.878444368 10.2700165688 291 52.5 c 0
 304.333333333 69.5 311 88.6666666667 311 110 c 2
 311 130 l 1
 217.216296455 130 149 190.783103481 149 285 c 0
 149 377.028021336 215.189039696 439 307 439 c 0
 417.280903642 439 473 361.989632604 473 252 c 0
 473 101.230043086 386.802954003 -14.5514251981 286.5 -69.5 c 0
 248.166666667 -90.5 206.666666667 -101 162 -101 c 0
312 925 m 0
 220.122711649 925 155 987.073309927 155 1079 c 256
 155 1171.42637732 218.459627109 1233 311 1233 c 256
 404.029052734 1233 469 1172.10153498 469 1079 c 256
 469 986.402134115 404.502509323 925 312 925 c 0
EndSplineSet
EndChar

StartChar: less
Encoding: 60 60 29
Width: 1171
Flags: W
LayerCount: 2
Fore
SplineSet
917 1276 m 1
 917 1045 l 1
 322 766 l 1
 917 478 l 1
 917 257 l 1
 127 676 l 1
 127 838 l 1
 917 1276 l 1
EndSplineSet
EndChar

StartChar: equal
Encoding: 61 61 30
Width: 1260
Flags: W
HStem: 305 186<175 1086> 668 186<175 1086>
LayerCount: 2
Fore
SplineSet
1086 854 m 1
 1086 668 l 1
 175 668 l 1
 175 854 l 1
 1086 854 l 1
1086 305 m 1
 175 305 l 1
 175 491 l 1
 1086 491 l 1
 1086 305 l 1
EndSplineSet
EndChar

StartChar: greater
Encoding: 62 62 31
Width: 1171
Flags: W
LayerCount: 2
Fore
SplineSet
917 676 m 1
 127 257 l 1
 127 478 l 1
 722 766 l 1
 127 1045 l 1
 127 1276 l 1
 917 838 l 1
 917 676 l 1
EndSplineSet
EndChar

StartChar: question
Encoding: 63 63 32
Width: 933
Flags: W
HStem: -36 308<288.046 516.465> 1350 184<177.437 555.056>
VStem: 244 314<6.52749 229.66> 363 92<482.018 622.521> 610 216<1004.26 1293.44>
LayerCount: 2
Fore
SplineSet
451 1534 m 0xd8
 689.342447982 1534 826 1410.69910798 826 1172 c 0
 826 1066.00510974 784.698902576 988.749167116 737.5 925 c 0
 659.868787962 820.14745387 558.343493189 735.309003606 494 617 c 0
 473.333333333 579 460.333333333 536.666666667 455 490 c 1
 439 484.666666667 423.333333333 482 408 482 c 0
 390.892236618 482 373.30061142 486.98841334 363 495 c 1
 363 661.838001964 418.069528252 781.591786576 486.5 879.5 c 0
 526.487703285 936.713175469 564.367436362 993.235184762 591.5 1058.5 c 0
 603.833333333 1088.16666667 610 1120 610 1154 c 0
 610 1288.22047193 539.591434896 1350 407 1350 c 0
 315.741014108 1350 231.815552895 1326.58440796 155 1308 c 1
 145.691206344 1363.85276194 136.106936396 1416.25144523 128 1473 c 1
 223.129250594 1505.92935597 329.701258395 1534 451 1534 c 0xd8
401 -36 m 0
 309.122711649 -36 244 26.0733099268 244 118 c 256
 244 210.426377317 307.459627109 272 400 272 c 256
 493.029052734 272 558 211.101534983 558 118 c 256xe8
 558 25.4021341148 493.502509323 -36 401 -36 c 0
EndSplineSet
EndChar

StartChar: at
Encoding: 64 64 33
Width: 2185
Flags: W
HStem: -344 168<710.965 1520.03> 61 144<845.963 1336.18> 87 128<1594.01 1799.39> 624 146<843.104 1364.98> 624 108<1044.41 1370> 1103 163<888.19 1356.06> 1472 163<759.495 1533.1>
VStem: 136 213<220.373 1039.73> 622 203<224.275 604.545> 692 190<901.832 1092.61> 1370 221<218.971 624 732 1083.66> 1849 210<280.869 1136.36>
LayerCount: 2
Fore
SplineSet
1636 87 m 0xaf70
 1531.32610196 87 1462.30961696 115.574667168 1450 212 c 1
 1436.58321238 139.884766521 1343.4104771 102.47934087 1265.5 84.5 c 0
 1194.43314144 68.0999557174 1113.97206145 61 1020 61 c 0
 831.490516881 61 697.071000871 90.3746435287 646 225.5 c 0
 630 267.833333333 622 322.333333333 622 389 c 0
 622 605.262507334 667.123810739 734.971974685 850.5 759.5 c 0
 902.833333333 766.5 965.666666667 770 1039 770 c 0xd7b0
 1154.52077845 770 1262.92034591 748.843990531 1370 732 c 1
 1370 959 l 2
 1370 1020.73494157 1374.10439188 1064.19127957 1338 1084.5 c 0
 1322 1093.5 1296.5 1098.83333333 1261.5 1100.5 c 0
 1226.5 1102.16666667 1177 1103 1113 1103 c 0
 1055.66666667 1103 1011.33333333 1102.33333333 980 1101 c 0
 929.45741119 1098.84925154 892.515197192 1092.09118315 886 1053 c 0
 883.333333333 1037 882 1014 882 984 c 0
 882 957.211280677 883.67102808 929.783177077 886 903 c 1
 705 883 l 1
 696.757228371 924.213858145 692 960.077988274 692 1005 c 0
 692 1235.93425954 895.662774784 1266 1129 1266 c 0
 1399.58999911 1266 1591 1206.00829438 1591 934 c 2
 1591 421 l 2
 1591 345 1591.33333333 276.333333333 1592 215 c 1
 1698.06560895 215 1781.67640311 209.729464381 1816.5 280.5 c 0
 1844.96357828 338.345336498 1845.90252242 423.151345021 1847.5 519 c 0
 1848.5 579 1849 652.666666667 1849 740 c 0
 1849 1077.41009563 1797.05543414 1323.78835632 1559.5 1418.5 c 0
 1450.62826099 1461.9063796 1315.05290543 1472 1158 1472 c 0
 877.771319264 1472 665.93217085 1433.28925717 529.5 1299 c 0
 390.569745234 1162.25189583 349 945.306168209 349 657 c 0
 349 357.727002451 373.927805378 102.9545684 526.5 -34 c 0
 666.494889829 -159.664704256 898.966821112 -176 1171 -176 c 0
 1383.41726385 -176 1563.62134119 -122.62964498 1736 -77 c 1
 1787 -224 l 1
 1607.68256483 -298.715597985 1388.74925586 -344 1139 -344 c 0
 820.280794338 -344 565.384913428 -303.992104158 393 -160 c 0
 199.997129011 1.21416282593 136 288.448568142 136 652 c 0
 136 1226.91574162 349.296518409 1541.14034858 848.5 1614.5 c 0
 941.5 1628.16666667 1043.33333333 1635 1154 1635 c 0
 1531.207028 1635 1803.61689328 1553.14991319 1944 1315 c 0
 2023.91366891 1179.43216881 2059 1000.81934342 2059 778 c 0
 2059 586.288295022 2055.27259706 426.900170936 2017.5 292.5 c 0
 1982.1207271 166.615610392 1918.81574807 98.8664773483 1773 90.5 c 0
 1732.33333333 88.1666666667 1686.66666667 87 1636 87 c 0xaf70
1103 205 m 0
 1170.33333333 205 1222.16666667 206.333333333 1258.5 209 c 0
 1310.91438843 212.846927591 1358.71052396 219.141435296 1366 256.5 c 0
 1368.66666667 270.166666667 1370 288.333333333 1370 311 c 2
 1370 624 l 1xcfb0
 1038 624 l 2
 984.666666667 624 943.666666667 622.833333333 915 620.5 c 0
 812.437713941 612.151906949 825 520.471053035 825 402 c 0
 825 329.652896513 818.630431733 258.723322376 859.5 229 c 0
 887.142148594 208.896619204 933.626997035 207.09206322 985.5 206 c 0
 1017.16666667 205.333333333 1056.33333333 205 1103 205 c 0
EndSplineSet
EndChar

StartChar: A
Encoding: 65 65 34
Width: 1390
Flags: W
HStem: 0 21G<77 286.964 1086.83 1314> 389 132<438 931> 1479 20G<540.729 843.364>
LayerCount: 2
Fore
SplineSet
1093 0 m 1
 973 389 l 1
 397 389 l 1
 281 0 l 1
 77 0 l 1
 547 1499 l 1
 837 1499 l 1
 1314 0 l 1
 1093 0 l 1
680 1373 m 1
 438 521 l 1
 931 521 l 1
 680 1373 l 1
EndSplineSet
EndChar

StartChar: B
Encoding: 66 66 35
Width: 1442
Flags: W
HStem: 0 157<396 1000.88> 721 146<396 959.262> 1342 157<396 956.828>
VStem: 175 221<157 721 867 1342> 1035 219<938.918 1265.44> 1090 219<238.163 623.97>
LayerCount: 2
Fore
SplineSet
1003 808 m 1xf8
 1200.42703587 778.38594462 1309 641.783533537 1309 417 c 0xf4
 1309 125.968106401 1142.71261671 21.0838753405 870 4.5 c 0
 820.666666667 1.5 770.333333333 0 719 0 c 2
 175 0 l 1
 175 1499 l 1
 677 1499 l 2
 886.414529809 1499 1070.88966199 1478.59265928 1169.5 1367.5 c 0
 1224.02482886 1306.07329407 1254 1220.04383479 1254 1102 c 0
 1254 926.351149482 1147.71089431 840.435200449 1003 808 c 1xf8
396 721 m 1
 396 157 l 1
 759 157 l 2
 906.64303479 157 1018.03671466 168.076488881 1066 268 c 0
 1082 301.333333333 1090 347.666666667 1090 407 c 0
 1090 581.959731058 1049.27258923 684.187351877 904 709.5 c 0
 860 717.166666667 807 721 745 721 c 2
 396 721 l 1
396 867 m 1
 726 867 l 2
 919.373097986 867 1035 893.82251766 1035 1090 c 0xf8
 1035 1231.43249499 991.0521453 1310.21455228 874.5 1332 c 0
 838.833333333 1338.66666667 797 1342 749 1342 c 0
 631.333333333 1342 513.666666667 1342 396 1342 c 1
 396 867 l 1
EndSplineSet
EndChar

StartChar: C
Encoding: 67 67 36
Width: 1470
Flags: W
HStem: -36 157<438.891 1067.92> 1376 157<436.992 1067.74>
VStem: 147 221<193.187 1303.7> 1126 211<178.321 534 963 1318.76>
LayerCount: 2
Fore
SplineSet
1337 534 m 1
 1337 324.951940085 1325.14937855 137.380875065 1216 46 c 0
 1119.09826283 -35.1270357708 955.158513986 -36 772 -36 c 0
 567.611640504 -36 388.906945108 -35.7557875902 280 55 c 0
 160.313389252 154.73884229 147 364.485774681 147 594 c 2
 147 903 l 2
 147 1133.85897129 159.15532358 1341.29610298 280 1442 c 0
 387.880870775 1531.90072565 568.395754098 1533 772 1533 c 0
 955.892016252 1533 1118.1950768 1532.88319152 1216 1451 c 0
 1324.10584074 1360.4927845 1337 1170.81546487 1337 963 c 1
 1126 963 l 1
 1124.90015662 1076.28386813 1129.29564194 1169.84004707 1111 1254 c 0
 1090.75499945 1347.12700252 1030.72590314 1370.30913656 920 1374 c 0
 880 1375.33333333 830.666666667 1376 772 1376 c 0
 629.977022659 1376 484.705982957 1391.18859242 420.5 1316.5 c 0
 380.948161374 1270.49071833 373.310669218 1193.06568266 370.5 1102 c 0
 368.833333333 1048 368 981.666666667 368 903 c 2
 368 594 l 2
 368 463.860941715 363.548893387 357.146356276 384.5 261.5 c 0
 407.828010355 155.002561424 475.5889944 126.693072626 603 123 c 0
 649 121.666666667 705.333333333 121 772 121 c 0
 895.777740023 121 1023.09179052 108.220877572 1079.5 172.5 c 0
 1114.28050158 212.133594828 1120.76004349 280.481543798 1123 360 c 0
 1124.33333333 407.333333333 1125.33333333 465.333333333 1126 534 c 1
 1337 534 l 1
EndSplineSet
EndChar

StartChar: D
Encoding: 68 68 37
Width: 1525
Flags: W
HStem: -1 160<395 1082.3> 1342 156<395 1084.75>
VStem: 174 221<159 1342> 1148 221<223.826 1276.41>
LayerCount: 2
Fore
SplineSet
744 158 m 2
 883.607235785 158 1030.07527787 142.734484229 1095.5 213.5 c 0
 1134.15669143 255.31233971 1142.71205323 326.273982987 1145 411.5 c 0
 1146.33333333 461.166666667 1147.33333333 522 1148 594 c 2
 1148 903 l 1
 1146.89970057 1024.03293743 1152.36787236 1125.08471775 1131.5 1214 c 0
 1107.65062017 1315.61909665 1037.65647717 1338.79007658 913 1341.5 c 0
 867 1342.5 810.666666667 1343 744 1343 c 2
 395 1342 l 1
 395 159 l 1
 744 158 l 2
174 -1 m 1
 174 1498 l 1
 744 1499 l 2
 944.431572511 1499 1126.56841141 1501.63334097 1236 1415 c 0
 1354.13154636 1321.47919246 1369 1124.13619534 1369 903 c 2
 1369 594 l 2
 1369 373.283585763 1354.46646304 180.785949908 1236 87 c 0
 1127.06635585 0.760865046016 944.93798252 -1 744 -1 c 2
 174 -1 l 1
EndSplineSet
EndChar

StartChar: E
Encoding: 69 69 38
Width: 1250
Flags: W
HStem: 0 160<396 1138> 703 160<396 1030> 1339 160<396 1120>
VStem: 175 221<160 703 863 1339>
LayerCount: 2
Fore
SplineSet
396 703 m 1
 396 160 l 1
 1138 160 l 1
 1138 0 l 1
 175 0 l 1
 175 1499 l 1
 1120 1499 l 1
 1120 1339 l 1
 396 1339 l 1
 396 863 l 1
 1030 863 l 1
 1030 703 l 1
 396 703 l 1
EndSplineSet
EndChar

StartChar: F
Encoding: 70 70 39
Width: 1099
Flags: W
HStem: 0 21G<175 396> 688 160<396 991> 1339 160<396 1041>
VStem: 175 221<0 688 848 1339>
LayerCount: 2
Fore
SplineSet
396 688 m 1
 396 0 l 1
 175 0 l 1
 175 1499 l 1
 1041 1499 l 1
 1041 1339 l 1
 396 1339 l 1
 396 848 l 1
 991 848 l 1
 991 688 l 1
 396 688 l 1
EndSplineSet
EndChar

StartChar: G
Encoding: 71 71 40
Width: 1502
Flags: W
HStem: -36 157<447.891 1025.98> -1 21G<1170.84 1333> 588 145<824 1133> 1376 157<445.992 1076.74>
VStem: 156 221<193.187 1303.7> 1135 198<152.613 588 963 1318.76>
LayerCount: 2
Fore
SplineSet
1129 94 m 1x7c
 1096.31489757 36.4119623912 1036.78964669 7.173425497 958 -16 c 0
 912.666666667 -29.3333333333 853.666666667 -36 781 -36 c 0
 576.611640504 -36 397.906945108 -35.7557875902 289 55 c 0
 169.313389252 154.73884229 156 364.485774681 156 594 c 2
 156 903 l 2
 156 1133.85897129 168.15532358 1341.29610298 289 1442 c 0
 396.880870775 1531.90072565 577.395754098 1533 781 1533 c 0
 964.892016252 1533 1127.1950768 1532.88319152 1225 1451 c 0
 1333.10584074 1360.4927845 1346 1170.81546487 1346 963 c 1
 1135 963 l 1
 1133.90015662 1076.28386813 1138.29564194 1169.84004707 1120 1254 c 0
 1099.75499945 1347.12700252 1039.72590314 1370.30913656 929 1374 c 0
 889 1375.33333333 839.666666667 1376 781 1376 c 0
 638.977022659 1376 493.705982957 1391.18859242 429.5 1316.5 c 0
 389.948161374 1270.49071833 382.310669218 1193.06568266 379.5 1102 c 0
 377.833333333 1048 377 981.666666667 377 903 c 2
 377 594 l 2
 377 463.860941715 372.548893387 357.146356276 393.5 261.5 c 0
 416.828010355 155.002561424 484.5889944 126.693072626 612 123 c 0
 658 121.666666667 714.333333333 121 781 121 c 0xbc
 875.46275605 121 953.813908295 117.468984716 1026 129.5 c 0
 1098.04138312 141.506897186 1127.90889808 172.746287991 1132 251.5 c 0
 1133.33333333 277.166666667 1134.33333333 308.666666667 1135 346 c 2
 1133 588 l 1
 824 588 l 1
 824 733 l 1
 1333 733 l 1
 1333 -1 l 1
 1182 -1 l 1
 1129 94 l 1x7c
EndSplineSet
EndChar

StartChar: H
Encoding: 72 72 41
Width: 1514
Flags: W
HStem: 0 21G<174 395 1120 1341> 681 157<395 1120> 1479 20G<174 395 1120 1341>
VStem: 174 221<0 681 838 1499> 1120 221<0 681 838 1499>
LayerCount: 2
Fore
SplineSet
395 681 m 1
 395 0 l 1
 174 0 l 5
 174 1499 l 1
 395 1499 l 1
 395 838 l 1
 1120 838 l 1
 1120 1499 l 1
 1341 1499 l 1
 1341 0 l 1
 1120 0 l 1
 1120 681 l 1
 395 681 l 1
EndSplineSet
EndChar

StartChar: I
Encoding: 73 73 42
Width: 566
Flags: W
HStem: 0 21G<174 395> 1479 20G<174 395>
VStem: 174 221<0 1499>
LayerCount: 2
Fore
SplineSet
395 0 m 1
 174 0 l 1
 174 1499 l 1
 395 1499 l 1
 395 0 l 1
EndSplineSet
EndChar

StartChar: J
Encoding: 74 74 43
Width: 712
Flags: W
HStem: -153 198<85.5672 319> -129 174<82 316.841> 1478 20G<319 540>
VStem: 319 221<45 1498>
LayerCount: 2
Fore
SplineSet
325 -153 m 0xb0
 237.7296393 -153 158.043766114 -142.941357121 82 -129 c 1
 82 45 l 1x70
 319 45 l 1xb0
 319 1498 l 1
 540 1498 l 1
 540 45 l 2x70
 540 -88.5696268147 457.93254988 -153 325 -153 c 0xb0
EndSplineSet
EndChar

StartChar: K
Encoding: 75 75 44
Width: 1442
Flags: W
HStem: 0 21G<175 396 1017.66 1305> 1479 20G<175 396 957.099 1235>
VStem: 175 221<0 658 815 1499>
LayerCount: 2
Fore
SplineSet
639 795 m 1
 1305 0 l 1
 1034 0 l 1
 449 716 l 1
 396 658 l 1
 396 0 l 1
 175 0 l 1
 175 1499 l 1
 396 1499 l 1
 396 815 l 1
 974 1499 l 1
 1235 1499 l 1
 639 795 l 1
EndSplineSet
EndChar

StartChar: L
Encoding: 76 76 45
Width: 1052
Flags: W
HStem: 0 160<396 1001> 1479 20G<175 396>
VStem: 175 221<160 1499>
LayerCount: 2
Fore
SplineSet
175 0 m 1
 175 1499 l 1
 396 1499 l 1
 396 160 l 1
 1001 160 l 1
 1001 0 l 1
 175 0 l 1
EndSplineSet
EndChar

StartChar: M
Encoding: 77 77 46
Width: 1851
Flags: W
HStem: 0 21G<161 334.032 843.124 989.549 1479.97 1690> 1479 20G<220.199 463.881 1372.22 1630.8>
VStem: 161 172<0 277.879> 1481 209<0 277.879>
LayerCount: 2
Fore
SplineSet
393 1163 m 1
 333 0 l 1
 161 0 l 1
 221 1499 l 1
 456 1499 l 1
 921 319 l 1
 1380 1499 l 1
 1630 1499 l 1
 1690 0 l 1
 1481 0 l 1
 1421 1163 l 1
 982 0 l 1
 851 0 l 1
 393 1163 l 1
EndSplineSet
EndChar

StartChar: N
Encoding: 78 78 47
Width: 1534
Flags: W
HStem: 0 21G<173 355 1125.97 1362> 1479 20G<173 409.875 1183 1362>
VStem: 173 182<0 1203> 1183 179<278 1499>
LayerCount: 2
Fore
SplineSet
1183 278 m 1
 1183 1499 l 1
 1362 1499 l 1
 1362 0 l 1
 1139 0 l 1
 355 1203 l 1
 355 0 l 1
 173 0 l 1
 173 1499 l 1
 397 1499 l 1
 1183 278 l 1
EndSplineSet
EndChar

StartChar: O
Encoding: 79 79 48
Width: 1561
Flags: W
HStem: -36 157<447.891 1116.01> 1376 157<445.992 1114.11>
VStem: 156 221<193.187 1303.7> 1185 221<193.303 1303.81>
LayerCount: 2
Fore
SplineSet
781 1376 m 256
 638.977022659 1376 493.705982957 1391.18859242 429.5 1316.5 c 0
 389.948161374 1270.49071833 382.310669218 1193.06568266 379.5 1102 c 0
 377.833333333 1048 377 981.666666667 377 903 c 2
 377 594 l 2
 377 463.860941715 372.548893387 357.146356276 393.5 261.5 c 0
 416.828010355 155.002561424 484.5889944 126.693072626 612 123 c 0
 658 121.666666667 714.333333333 121 781 121 c 256
 923.022977341 121 1068.29401704 105.811407581 1132.5 180.5 c 0
 1171.96495853 226.408217062 1179.74552045 303.693578283 1182 395 c 0
 1183.33333333 449 1184.33333333 515.333333333 1185 594 c 2
 1185 903 l 1
 1183.90080622 1032.70486646 1189.55644299 1139.37276028 1168.5 1235.5 c 0
 1145.17198965 1341.99743858 1077.4110056 1370.30692737 950 1374 c 0
 904 1375.33333333 847.666666667 1376 781 1376 c 256
781 -36 m 256
 576.611640504 -36 397.906945108 -35.7557875902 289 55 c 0
 169.313389252 154.73884229 156 364.485774681 156 594 c 2
 156 903 l 2
 156 1133.85897129 168.15532358 1341.29610298 289 1442 c 0
 396.880870775 1531.90072565 577.395754098 1533 781 1533 c 256
 985.388359496 1533 1164.09305489 1532.75578759 1273 1442 c 0
 1392.68661075 1342.26115771 1406 1132.51422532 1406 903 c 2
 1406 594 l 2
 1406 363.141028713 1393.84467642 155.703897016 1273 55 c 0
 1165.11912923 -34.9007256456 984.604245902 -36 781 -36 c 256
EndSplineSet
EndChar

StartChar: P
Encoding: 80 80 49
Width: 1308
Flags: W
HStem: 0 21G<174 395> 498 161<395 976.842> 1342 157<395 973.725>
VStem: 174 221<0 498 659 1342> 1043 219<725.162 1269.54>
LayerCount: 2
Fore
SplineSet
752 1499 m 2
 955.638427996 1499 1111.15944719 1466.21054294 1192 1342.5 c 0
 1239.94051768 1269.13648052 1262 1168.57696114 1262 1042 c 0
 1262 780.2771838 1215.01656214 587.158942196 1019.5 527 c 0
 939.256232925 502.309610131 844.363041857 498 738 498 c 2
 395 498 l 1
 395 0 l 1
 174 0 l 1
 174 1499 l 1
 752 1499 l 2
732 659 m 2
 847.7638035 659 950.019650437 660.92603683 998 724.5 c 0
 1049.71364256 793.020576386 1043 922.453060618 1043 1048 c 0
 1043 1215.47039955 1014.26442594 1326.03175585 869 1337.5 c 0
 831 1340.5 787.333333333 1342 738 1342 c 2
 395 1342 l 1
 395 659 l 1
 732 659 l 2
EndSplineSet
EndChar

StartChar: Q
Encoding: 81 81 50
Width: 1495
Flags: W
HStem: -36 157<383.891 1029.85> 1376 157<381.992 1050.11>
VStem: 92 221<193.187 1303.7> 1121 221<193.303 1303.81>
LayerCount: 2
Fore
SplineSet
1315 -246 m 1
 1165 -358 l 1
 923 -24 l 1
 1114 33 l 1
 1315 -246 l 1
717 1376 m 256
 574.977022659 1376 429.705982957 1391.18859242 365.5 1316.5 c 0
 325.948161374 1270.49071833 318.310669218 1193.06568266 315.5 1102 c 0
 313.833333333 1048 313 981.666666667 313 903 c 2
 313 594 l 2
 313 463.860941715 308.548893387 357.146356276 329.5 261.5 c 0
 352.828010355 155.002561424 420.5889944 126.693072626 548 123 c 0
 594 121.666666667 650.333333333 121 717 121 c 256
 859.022977341 121 1004.29401704 105.811407581 1068.5 180.5 c 0
 1107.96495853 226.408217062 1115.74552045 303.693578283 1118 395 c 0
 1119.33333333 449 1120.33333333 515.333333333 1121 594 c 2
 1121 903 l 1
 1119.90080622 1032.70486646 1125.55644299 1139.37276028 1104.5 1235.5 c 0
 1081.17198965 1341.99743858 1013.4110056 1370.30692737 886 1374 c 0
 840 1375.33333333 783.666666667 1376 717 1376 c 256
717 -36 m 256
 512.611640504 -36 333.906945108 -35.7557875902 225 55 c 0
 105.313389252 154.73884229 92 364.485774681 92 594 c 2
 92 903 l 2
 92 1133.85897129 104.15532358 1341.29610298 225 1442 c 0
 332.880870775 1531.90072565 513.395754098 1533 717 1533 c 256
 921.388359496 1533 1100.09305489 1532.75578759 1209 1442 c 0
 1328.68661075 1342.26115771 1342 1132.51422532 1342 903 c 2
 1342 594 l 2
 1342 363.141028713 1329.84467642 155.703897016 1209 55 c 0
 1101.11912923 -34.9007256456 920.604245902 -36 717 -36 c 256
EndSplineSet
EndChar

StartChar: R
Encoding: 82 82 51
Width: 1450
Flags: W
HStem: 0 21G<174 395 1064 1283> 643 150<395 1002.04> 1342 157<395 1002.29>
VStem: 174 221<0 643 793 1342> 1064 219<1 615.781 852.612 1283.78>
LayerCount: 2
Fore
SplineSet
395 0 m 1
 174 0 l 1
 174 1499 l 1
 739 1499 l 2
 943.049224083 1499 1120.0379238 1485.10600758 1213.5 1375 c 0
 1265.35668781 1313.90855957 1291 1228.60046903 1291 1112 c 0
 1291 883.047689441 1236.01044227 746.419454603 1022 729 c 1
 1173.72756763 721.774877732 1283 638.20488617 1283 482 c 2
 1283 1 l 1
 1064 1 l 1
 1064 421 l 2
 1064 545.555191898 1060.9481603 632.571716343 952 640 c 0
 922.666666667 642 885 643 839 643 c 2
 395 643 l 1
 395 0 l 1
740 793 m 2
 912.23139009 793 1028.19233777 792.809254944 1058.5 932 c 0
 1067.5 973.333333333 1072 1030 1072 1102 c 0
 1072 1255.87087844 1023.74541025 1325.9884595 885 1337 c 0
 843 1340.33333333 793.333333333 1342 736 1342 c 2
 395 1342 l 1
 395 793 l 1
 740 793 l 2
EndSplineSet
EndChar

StartChar: S
Encoding: 83 83 52
Width: 1407
Flags: W
HStem: -37 174<381.841 1021.09> 1370 163<422.376 993.118>
VStem: 136 209<172.017 416> 165 218<925.357 1327.2> 1023 207<1106 1340.52> 1059 208<174.985 628.42>
LayerCount: 2
Fore
SplineSet
1023 1106 m 1xd8
 1023 1227.4639875 1038.16863759 1336.78860056 937 1360.5 c 0
 879.377497677 1374.00527398 813.141689641 1370 734 1370 c 0
 637.429914048 1370 559.255382063 1374.39526578 487 1360.5 c 0
 407.197882221 1345.15343889 387.248876647 1294.46180598 384.5 1201 c 0
 383.5 1167 383 1125 383 1075 c 0xd8
 383 998.878752325 386.128468229 929.013246624 451 917 c 0
 605.187115299 886.713245209 781.747420591 865.470309529 944 846 c 0
 1093.90520941 827.261848824 1200.34810839 798.378414776 1240.5 671 c 0
 1263.46206933 598.154814538 1267 510.078981141 1267 407 c 0
 1267 224.460346656 1222.51048162 94.8425490349 1108.5 30.5 c 0
 1003.45790808 -28.7811805907 853.497320852 -37 687 -37 c 0
 427.881234928 -37 237.170491178 -13.8956950401 168 172 c 0
 146.666666667 229.333333333 136 305 136 399 c 2
 136 416 l 1
 345 416 l 1
 345 318.453595955 334.505560122 215.770273897 386 172 c 0
 418.191450561 144.637267024 471.911480176 140.188190792 535.5 138.5 c 0
 573.166666667 137.5 619.333333333 137 674 137 c 0
 779.46802219 137 865.117522508 133.56700974 945 147.5 c 0
 1026.20238844 161.663207287 1052.98380767 199.635672683 1057 290 c 0
 1058.33333333 320 1059 357 1059 401 c 0xe4
 1059 502.920898099 1064.93121346 626.251479186 981 646 c 0
 841.740985448 677.333278274 668.228340038 697.727142036 519 716 c 1
 344.983229915 738.850686981 221.889867902 759.020802501 183 913.5 c 0
 171 961.166666667 165 1025.33333333 165 1106 c 0
 165 1389.79638655 279.334231796 1515.72308546 547 1529.5 c 0
 592.333333333 1531.83333333 640 1533 690 1533 c 0
 911.147550277 1533 1112.52512705 1532.98112618 1184.5 1387.5 c 0
 1220.49198041 1314.75025237 1228.8071174 1220.5167299 1230 1106 c 1
 1023 1106 l 1xd8
EndSplineSet
EndChar

StartChar: T
Encoding: 84 84 53
Width: 1163
Flags: W
HStem: 0 21G<468 689> 1339 160<51 468 689 1114>
VStem: 468 221<0 1339>
LayerCount: 2
Fore
SplineSet
1114 1499 m 1
 1114 1339 l 1
 689 1339 l 1
 689 0 l 1
 468 0 l 1
 468 1339 l 1
 51 1339 l 1
 51 1499 l 1
 1114 1499 l 1
EndSplineSet
EndChar

StartChar: U
Encoding: 85 85 54
Width: 1561
Flags: W
HStem: -37 163<480.303 1084.11> 1479 20G<164 385 1177 1398>
VStem: 164 221<222.034 1499> 1177 221<216.854 1499>
LayerCount: 2
Fore
SplineSet
781 -37 m 256
 508.87744125 -37 298.48932432 -18.9931958182 216.5 168 c 0
 172.607959024 268.104654859 164 395.561372631 164 549 c 2
 164 1499 l 1
 385 1499 l 1
 385 467 l 2
 385 294.756906859 405.32024731 176.919938173 541 143 c 0
 609.908355429 125.772911143 688.900460321 126 781 126 c 0
 946.249414939 126 1089.83361096 124.736689507 1143 235.5 c 0
 1171.47362581 294.820053773 1177 372.392713027 1177 467 c 2
 1177 1499 l 1
 1398 1499 l 1
 1398 549 l 2
 1398 336.408677894 1381.14273044 158.176542311 1270.5 63 c 0
 1164.2387388 -28.4075365162 984.583407028 -37 781 -37 c 256
EndSplineSet
EndChar

StartChar: V
Encoding: 86 86 55
Width: 1503
Flags: W
HStem: 0 21G<626.062 870.031> 1479 20G<113 353.516 1145.66 1390>
LayerCount: 2
Fore
SplineSet
752 256 m 1
 758 256 l 1
 1152 1499 l 1
 1390 1499 l 1
 863 0 l 1
 633 0 l 1
 113 1499 l 1
 347 1499 l 1
 752 256 l 1
EndSplineSet
EndChar

StartChar: W
Encoding: 87 87 56
Width: 2142
Flags: W
HStem: 0 21G<508.063 768.168 1366.95 1627.03> 1479 20G<143 381.298 956.907 1181.27 1766.72 1999>
LayerCount: 2
Fore
SplineSet
1501 266 m 1
 1507 266 l 1
 1771 1499 l 1
 1999 1499 l 1
 1622 0 l 1
 1372 0 l 1
 1071 1192 l 1
 763 0 l 1
 513 0 l 1
 143 1499 l 1
 377 1499 l 1
 642 266 l 1
 648 266 l 1
 962 1499 l 1
 1176 1499 l 1
 1501 266 l 1
EndSplineSet
EndChar

StartChar: X
Encoding: 88 88 57
Width: 1480
Flags: W
HStem: 0 21G<152 400.739 1079.26 1328> 1479 20G<174 416.858 1063.14 1306>
LayerCount: 2
Fore
SplineSet
740 598 m 1
 389 0 l 1
 152 0 l 1
 620 770 l 1
 174 1499 l 1
 405 1499 l 1
 740 934 l 1
 1075 1499 l 1
 1306 1499 l 1
 860 770 l 1
 1328 0 l 1
 1091 0 l 1
 740 598 l 1
EndSplineSet
EndChar

StartChar: Y
Encoding: 89 89 58
Width: 1374
Flags: W
HStem: 0 21G<573 794> 1479 20G<106 350.875 1033.95 1269>
VStem: 573 221<0 510>
LayerCount: 2
Fore
SplineSet
342 1499 m 1
 689 717 l 1
 1043 1499 l 1
 1269 1499 l 1
 794 510 l 1
 794 0 l 1
 573 0 l 1
 573 510 l 1
 106 1499 l 1
 342 1499 l 1
EndSplineSet
EndChar

StartChar: Z
Encoding: 90 90 59
Width: 1230
Flags: W
HStem: 0 168<382 1084> 1336 163<210 859>
LayerCount: 2
Fore
SplineSet
132 0 m 1
 132 147 l 1
 859 1336 l 1
 210 1336 l 1
 210 1499 l 1
 1085 1499 l 1
 1085 1328 l 1
 382 168 l 1
 1084 168 l 1
 1084 0 l 1
 132 0 l 1
EndSplineSet
EndChar

StartChar: bracketleft
Encoding: 91 91 60
Width: 786
Flags: W
HStem: -262 148<397 682> 1543 147<397 682>
VStem: 185 497<-262 -114 1543 1690> 185 212<-114 1543>
LayerCount: 2
Fore
SplineSet
185 -262 m 1xe0
 185 1690 l 1
 682 1690 l 1
 682 1543 l 1xe0
 397 1543 l 1
 397 -114 l 1xd0
 682 -114 l 1
 682 -262 l 1
 185 -262 l 1xe0
EndSplineSet
EndChar

StartChar: backslash
Encoding: 92 92 61
Width: 728
Flags: W
HStem: 0 21G<412.624 638> 1479 20G<89 314.376>
VStem: 89 549
LayerCount: 2
Fore
SplineSet
89 1499 m 1
 310 1499 l 1
 638 0 l 1
 417 0 l 1
 89 1499 l 1
EndSplineSet
EndChar

StartChar: bracketright
Encoding: 93 93 62
Width: 786
Flags: W
HStem: -262 148<105 390> 1543 147<105 390>
VStem: 105 497<-262 -114 1543 1690> 390 212<-114 1543>
LayerCount: 2
Fore
SplineSet
105 1690 m 1xe0
 602 1690 l 1
 602 -262 l 1
 105 -262 l 1
 105 -114 l 1xe0
 390 -114 l 1
 390 1543 l 1xd0
 105 1543 l 1
 105 1690 l 1xe0
EndSplineSet
EndChar

StartChar: asciicircum
Encoding: 94 94 63
Width: 1124
Flags: W
HStem: 1401 397
VStem: 252 621<1417.12 1454>
LayerCount: 2
Fore
SplineSet
873 1440 m 0
 873 1417.1156779 856.22266534 1401 834 1401 c 0
 821.333333333 1401 808 1406 794 1416 c 1
 562 1627 l 1
 331 1416 l 1
 317 1406 303.666666667 1401 291 1401 c 0
 268.781425284 1401 252 1417.12053398 252 1440 c 0
 252 1454 256.666666667 1467.66666667 266 1481 c 2
 457 1754 l 2
 476.69694532 1782.3143589 515.92299374 1798 562 1798 c 256
 608.642337528 1798 647.24645834 1782.07832107 668 1754 c 2
 858 1481 l 2
 866.931702116 1468.71890959 873 1458.32811829 873 1440 c 0
EndSplineSet
EndChar

StartChar: underscore
Encoding: 95 95 64
Width: 1273
Flags: W
HStem: -425 387<175 1098>
LayerCount: 2
Fore
SplineSet
1098 -425 m 1
 175 -425 l 1
 175 -38 l 1
 1098 -38 l 1
 1098 -425 l 1
EndSplineSet
EndChar

StartChar: grave
Encoding: 96 96 65
Width: 1037
Flags: W
HStem: 1292 348
VStem: 212 539
LayerCount: 2
Fore
SplineSet
212 1539 m 0
 212 1598.78792949 257.219510081 1640 318 1640 c 0
 381.368639477 1640 415.053319464 1609.4600104 457 1578 c 0
 545.492960041 1511.63027997 634.93485518 1429.74527526 714.5 1357 c 2
 732 1341 l 2
 744.666666667 1330.33333333 751 1320.33333333 751 1311 c 0
 751 1298.33333333 742.333333333 1292 725 1292 c 0
 719.666666667 1292 713.666666667 1293 707 1295 c 0
 564.634639278 1339.81872467 446.091438125 1376.03574395 314.5 1425 c 0
 300.166666667 1430.33333333 291 1434.66666667 287 1438 c 1
 246.911553301 1458.04422335 212 1489.19374522 212 1539 c 0
EndSplineSet
EndChar

StartChar: a
Encoding: 97 97 66
Width: 1273
Flags: W
HStem: -24 141.514<368.614 756.355> 0 21G<930.635 1103> 513 124<429.413 882> 1019.95 161.048<409.341 862.317>
VStem: 132.032 199.933<153.974 436.038> 204 190<798 1005.84> 882 221<235.749 513 637 997.493> 935 168<0 65.6789>
LayerCount: 2
Fore
SplineSet
528.62811013 1019.95210607 m 0xba
 419.517965254 1019.95210607 394 1002.62726036 394 900 c 0
 394 866.829268293 395.333333333 832.829268293 398 798 c 1
 217 798 l 1
 208.333333333 841.333333333 204 886 204 932 c 0
 204 1140.73292692 392.271687502 1181 634.697674419 1181 c 0
 926.092690392 1181 1103 1118.09278544 1103 849 c 2xb6
 1103 0 l 1
 935 0 l 1x71
 892 197 l 1
 853.015381831 -11.3203508464 642.729109575 -24 454.551757812 -24 c 0
 265 -24 132.032226562 54.9557467357 132.032226562 285.877929688 c 0
 132.032226562 554.408827267 215.340866529 637 882 637 c 1
 882 874 l 2
 882 885 882.140844762 896.245031448 882.140844762 906.395698995 c 0
 882.140844762 1006.62008172 821.203241906 1019.57457721 731.886085589 1019.57457721 c 0
 700.746945475 1019.57457721 666.158362036 1018 629.5 1018 c 0
 597.397240149 1018 561.959030348 1019.95210607 528.62811013 1019.95210607 c 0xba
331.96484375 290.478515625 m 0xba
 331.96484375 173.785219105 351.303460443 117.513671875 554.977539062 117.513671875 c 0
 802 117.513671875 882 183.56454035 882 513 c 1
 411.568348161 513 331.96484375 480.294056583 331.96484375 290.478515625 c 0xba
EndSplineSet
EndChar

StartChar: b
Encoding: 98 98 67
Width: 1237
Flags: W
HStem: -24 163<496.804 926.878> 0 21G<175 372.762> 1017 162<477.09 923.038>
VStem: 175 217<161.01 992.555 1053 1594> 948 219<162.73 992.035>
LayerCount: 2
Fore
SplineSet
677 1017 m 0xb8
 598.921514256 1017 534.344043536 1019.43607248 476.5 1007.5 c 0
 414.273243015 994.659558082 396.424660929 961.141636245 393.5 889 c 0
 392.5 864.333333333 392 834.333333333 392 799 c 2
 392 342 l 2
 392 222.580439948 385.309824446 155.029310662 494.5 144 c 0
 527.5 140.666666667 574.333333333 139 635 139 c 0
 720.236388088 139 789.417087743 136.124463263 854.5 146.5 c 0
 919.265593799 156.824949736 943.450695343 184.849557997 946.5 256 c 0
 947.5 279.333333333 948 308 948 342 c 2
 948 799 l 2
 948 875.889117646 955.380095076 957.003561455 913.5 990 c 0
 886.513797495 1011.26185652 842.497897434 1014.88176565 790.5 1016 c 0
 759.5 1016.66666667 721.666666667 1017 677 1017 c 0xb8
392 1053 m 1
 435.61027715 1148.39748126 576.429225346 1179 720 1179 c 0
 939.035563139 1179 1100.05826138 1141.29608516 1147 977 c 0
 1160.33333333 930.333333333 1167 874 1167 808 c 2
 1167 387 l 2
 1167 174.687939416 1131.75286161 45.7816767548 967 -1 c 0
 913 -16.3333333333 842 -24 754 -24 c 0xb8
 625.983470284 -24 529.128860453 -3.1562218175 459 40 c 0
 428.333333333 58.6666666667 406.333333333 80.3333333333 393 105 c 1
 368 0 l 1
 175 0 l 1x78
 175 1594 l 1
 392 1594 l 1
 392 1053 l 1
EndSplineSet
EndChar

StartChar: c
Encoding: 99 99 68
Width: 1256
Flags: W
HStem: -23 162<393.479 887.204> 1018 162<395.772 884.995>
VStem: 157 217<161.541 994.657> 908 209<159.357 375 766 993.977>
LayerCount: 2
Fore
SplineSet
908 766 m 1
 908 800 l 2
 908 854.666666667 906.666666667 896.666666667 904 926 c 0
 898.369118787 987.939693339 866.93998798 1010.05262218 801.5 1014.5 c 0
 767.166666667 1016.83333333 718.666666667 1018 656 1018 c 0
 577.929884977 1018 515.902877679 1021.12435765 457.5 1010 c 0
 394.658048115 998.030104403 378.383644777 963.591119431 375.5 891.5 c 0
 374.5 866.5 374 836 374 800 c 2
 374 343 l 2
 374 268.862957353 367.288319479 195.170353324 409 164.5 c 0
 437.190647053 143.771583049 484.05076966 141.103108965 537 140 c 0
 569 139.333333333 608.666666667 139 656 139 c 0
 725.28062192 139 781.329631099 136.350463252 833 146.5 c 0
 916.275536263 162.857694623 908 241.227850003 908 343 c 2
 908 375 l 1
 1117 375 l 1
 1117 359 l 2
 1117 222.203263332 1101.46872689 123.217166934 1031 60.5 c 0
 951.040236748 -10.664189294 821.292653534 -23 656 -23 c 0
 416.176856321 -23 222.983221688 -2.51448332577 176 178 c 0
 163.333333333 226.666666667 157 287 157 359 c 2
 157 798 l 2
 157 937.682661071 174.961009505 1034.97754405 251 1096.5 c 0
 339.744675266 1168.30250999 480.112621079 1180 656 1180 c 0
 885.10270142 1180 1054.1478293 1153.01126816 1098.5 978 c 0
 1110.83333333 929.333333333 1117 869.333333333 1117 798 c 2
 1117 766 l 1
 908 766 l 1
EndSplineSet
EndChar

StartChar: d
Encoding: 100 100 69
Width: 1241
Flags: W
HStem: -24 163<312.562 748.943> 0 21G<872.238 1070> 1018 162<310.353 768.005>
VStem: 70 219<167.144 992.583> 853 217<159.344 994.288 1053 1594>
LayerCount: 2
Fore
SplineSet
568 1018 m 0xb8
 490.970192184 1018 428.942779553 1021.43961507 372 1009.5 c 0
 309.984223683 996.496692062 293.393479309 962.836982726 290.5 890.5 c 0
 289.5 865.5 289 835 289 799 c 2
 289 342 l 2
 289 264.979319683 282.612443624 193.297404027 329 164 c 0
 362.024356234 143.142511852 415.791496861 141.076518239 475 140 c 0
 511.666666667 139.333333333 556.666666667 139 610 139 c 0
 670.666666667 139 717.5 140.666666667 750.5 144 c 0
 811.922690392 150.204312161 843.227889911 171.057385346 849 229.5 c 0
 851.666666667 256.5 853 294 853 342 c 2
 853 799 l 2
 853 876.17512895 860.096919967 955.639518883 817.5 988.5 c 0
 788.678038947 1010.73408424 742.667441352 1014.8265069 688 1016.5 c 0
 655.333333333 1017.5 615.333333333 1018 568 1018 c 0xb8
525 1180 m 0
 669.192620051 1180 809.233291871 1148.73967403 853 1053 c 1
 853 1594 l 1
 1070 1594 l 1
 1070 0 l 1
 877 0 l 1x78
 852 105 l 1
 820.308833878 46.3713426752 756.989531086 18.8139524186 676 -4 c 0
 628.666666667 -17.3333333333 567 -24 491 -24 c 0
 266.494094442 -24 120.053867791 18.3883497456 85 199.5 c 0
 75 251.166666667 70 313.666666667 70 387 c 2
 70 808 l 2
 70 1013.93780091 134.018736213 1118.91356205 302 1159 c 0
 360.666666667 1173 435 1180 525 1180 c 0
EndSplineSet
EndChar

StartChar: e
Encoding: 101 101 70
Width: 1304
Flags: W
HStem: -23 162<393.479 917.711> 555 104<374 938> 1018 162<395.772 917.7>
VStem: 157 217<161.541 555 659 994.657> 938 219<162.343 367 659 995.438>
LayerCount: 2
Fore
SplineSet
1157 367 m 1
 1157 359 l 2
 1157 219.317338929 1139.0389905 122.022455946 1063 60.5 c 0
 973.688256509 -11.7613197332 833.534457176 -23 656 -23 c 256
 416.176856321 -23 222.983221688 -2.51448332577 176 178 c 0
 163.333333333 226.666666667 157 287 157 359 c 2
 157 798 l 2
 157 937.682661071 174.961009505 1034.97754405 251 1096.5 c 0
 339.744675266 1168.30250999 480.112621079 1180 656 1180 c 0
 866.690029243 1180 1050.73140266 1162.66263747 1119 1024.5 c 0
 1148.32373464 965.154346559 1157 888.675065986 1157 798 c 2
 1157 555 l 1
 374 555 l 1
 374 343 l 2
 374 268.862957353 367.288319479 195.170353324 409 164.5 c 0
 437.190647053 143.771583049 484.05076966 141.103108965 537 140 c 0
 569 139.333333333 608.666666667 139 656 139 c 256
 733.953413418 139 795.609019895 136.217447918 854.5 146.5 c 0
 915.632556907 157.173938507 933.560914603 188.42134073 936.5 257 c 0
 937.5 280.333333333 938 309 938 343 c 2
 938 367 l 1
 1157 367 l 1
374 659 m 1
 938 659 l 1
 938 800 l 2
 938 877.019041991 945.527753401 958.478776811 903 991 c 0
 874.87967694 1012.50377646 828.220075155 1015.89236958 774.5 1017 c 0
 742.166666667 1017.66666667 702.666666667 1018 656 1018 c 0
 577.929884977 1018 515.902877679 1021.12435765 457.5 1010 c 0
 394.658048115 998.030104403 378.383644777 963.591119431 375.5 891.5 c 0
 374.5 866.5 374 836 374 800 c 2
 374 659 l 1
EndSplineSet
EndChar

StartChar: f
Encoding: 102 102 71
Width: 698
Flags: W
HStem: 0 21G<201 418> 1028 119<58 201 418 636> 1412 167<419.91 637.271> 1412 149<460.037 640>
VStem: 201 217<0 1028 1147 1409>
LayerCount: 2
Fore
SplineSet
457 1579 m 0xe8
 521.860650889 1579 581.808980683 1569.85515511 640 1561 c 1
 640 1412 l 1
 418 1412 l 1xd8
 418 1147 l 1
 636 1147 l 1
 636 1028 l 1
 418 1028 l 1
 418 0 l 1
 201 0 l 1
 201 1028 l 1
 58 1028 l 1
 58 1147 l 1
 201 1147 l 1
 201 1287.53243069 183.325556082 1440.75803173 256.5 1516.5 c 0
 298.977777302 1560.46822563 365.605013733 1579 457 1579 c 0xe8
EndSplineSet
EndChar

StartChar: g
Encoding: 103 103 72
Width: 1275
Flags: W
HStem: -352 157<292.463 885.209> 0 162<371.658 826.189> 1018 162<370.098 794.433> 1127 20G<912.792 1111>
VStem: 131 219<186.856 993.986> 894 216<-182.912 103 181.715 997.255>
LayerCount: 2
Fore
SplineSet
619 162 m 0xec
 687.666666667 162 740.666666667 163.166666667 778 165.5 c 0
 844.796826135 169.674801633 882.778696814 186.501894258 889.5 245.5 c 0
 892.5 271.833333333 894 309 894 357 c 2
 894 814 l 2
 894 931.353264168 902.348054199 1001.7528364 795.5 1013 c 0
 763.833333333 1016.33333333 719 1018 661 1018 c 0
 575.645566921 1018 507.61443148 1020.88056154 442.5 1010.5 c 0
 377.641742034 1000.16027772 354.553479825 971.247862576 351.5 900 c 0
 350.5 876.666666667 350 848 350 814 c 2
 350 380 l 2
 350 302.459841725 340.958710734 222.517379422 383.5 189 c 0
 430.377310817 152.066361175 530.604318264 162 619 162 c 0xec
288 -153 m 1
 382.670623201 -187.878650653 511.937581208 -195 639 -195 c 0
 702.333333333 -195 751.166666667 -194.166666667 785.5 -192.5 c 0
 836.875495609 -190.006043902 882.073237869 -184.731346455 889 -147.5 c 0
 891.666666667 -133.166666667 893 -113.333333333 893 -88 c 2
 892 103 l 1
 866.151912513 56.1503414296 811.08078276 32.8292022129 744 15.5 c 0
 704 5.16666666667 651.333333333 0 586 0 c 0
 363.697119644 0 199.979396323 36.4605979201 151.5 202 c 0
 137.833333333 248.666666667 131 305 131 371 c 2
 131 769 l 2
 131 982.835060004 167.527788058 1110.45017122 334.5 1157 c 0
 389.5 1172.33333333 462 1180 552 1180 c 0xec
 673.252568565 1180 765.540994353 1157.45989555 831 1115 c 0
 859.666666667 1096.33333333 880.333333333 1075 893 1051 c 1
 918 1147 l 1
 1111 1147 l 1xdc
 1110 45 l 2
 1110 -180.33010114 1038.43660437 -292.850972906 851.5 -332 c 0
 787.833333333 -345.333333333 708.333333333 -352 613 -352 c 0
 480.522180968 -352 353.342148273 -336.439287797 256 -299 c 1
 288 -153 l 1
EndSplineSet
EndChar

StartChar: h
Encoding: 104 104 73
Width: 1208
Flags: W
HStem: 0 21G<173 390 910 1129> 1018 161<494.813 888.327> 1532 20G<173 390>
VStem: 173 217<0 990.836 1052 1552> 910 219<0 993.767>
LayerCount: 2
Fore
SplineSet
669 1018 m 0
 549.67967804 1018 425.433524367 1037.57186251 400.5 939.5 c 0
 387.257127518 887.411368238 390 824.545835052 390 752 c 2
 390 0 l 1
 173 0 l 1
 173 1552 l 1
 390 1552 l 1
 390 1052 l 1
 425.587077942 1106.15424904 484.284997786 1135.44999933 562 1159 c 0
 606 1172.33333333 662 1179 730 1179 c 0
 940.511009765 1179 1070.09761514 1129.97736484 1110.5 964 c 0
 1122.83333333 913.333333333 1129 852 1129 780 c 2
 1129 0 l 1
 910 0 l 1
 910 772 l 2
 910 879.33525146 925.684574998 985.970112265 838.5 1009 c 0
 791.623151954 1021.38256363 734.748931533 1018 669 1018 c 0
EndSplineSet
EndChar

StartChar: i
Encoding: 105 105 74
Width: 522
Flags: W
HStem: 0 21G<154 373> 1127 20G<154 373> 1384 187<154 373>
VStem: 154 219<0 1147 1384 1571>
LayerCount: 2
Fore
SplineSet
373 1147 m 1
 373 0 l 1
 154 0 l 1
 154 1147 l 1
 373 1147 l 1
373 1571 m 1
 373 1384 l 1
 154 1384 l 1
 154 1571 l 1
 373 1571 l 1
EndSplineSet
EndChar

StartChar: j
Encoding: 106 106 75
Width: 560
Flags: W
HStem: -311 155<17 198.677> 1127 20G<199 416> 1384 187<199 418>
VStem: 199 217<-153.771 1147 1384 1571>
LayerCount: 2
Fore
SplineSet
416 -49 m 2
 416 -230.366307399 339.734496432 -311 158 -311 c 0
 108.447079679 -311 60.8193445797 -304.511887642 17 -297 c 1
 13 -156 l 1
 199 -156 l 1
 199 1147 l 1
 416 1147 l 1
 416 -49 l 2
418 1384 m 1
 199 1384 l 1
 199 1571 l 1
 418 1571 l 1
 418 1384 l 1
EndSplineSet
EndChar

StartChar: k
Encoding: 107 107 76
Width: 1228
Flags: W
HStem: 0 21G<175 392 898.07 1156> 1127 20G<850.37 1120> 1532 20G<175 392>
VStem: 175 217<0 481 660 1552>
LayerCount: 2
Fore
SplineSet
392 660 m 1
 870 1147 l 1
 1120 1147 l 1
 640 674 l 1
 1156 0 l 1
 913 0 l 1
 489 568 l 1
 392 481 l 1
 392 0 l 1
 175 0 l 1
 175 1552 l 1
 392 1552 l 1
 392 660 l 1
EndSplineSet
EndChar

StartChar: l
Encoding: 108 108 77
Width: 565
Flags: W
HStem: 0 21G<175 392> 1532 20G<175 392>
VStem: 175 217<0 1552>
LayerCount: 2
Fore
SplineSet
392 0 m 1
 175 0 l 1
 175 1552 l 1
 392 1552 l 1
 392 0 l 1
EndSplineSet
EndChar

StartChar: m
Encoding: 109 109 78
Width: 1923
Flags: W
HStem: 0 21G<172 389 860 1077 1536 1755> 1018 162<493.096 839.524 1121.09 1517.96> 1127 20G<172 370.474>
VStem: 172 217<0 995.109> 860 217<0 998.619> 1536 219<0 997.147>
LayerCount: 2
Fore
SplineSet
1026 1038 m 1xdc
 1067.65152699 1140.90377257 1199.83169461 1180 1342 1180 c 0
 1550.71638035 1180 1690.85228806 1142.53545579 1735 982.5 c 0
 1748.33333333 934.166666667 1755 873.666666667 1755 801 c 2
 1755 0 l 1
 1536 0 l 1
 1536 788 l 2
 1536 886.436394132 1552.78711684 990.371091959 1471 1010 c 0
 1426.90786331 1020.58211281 1375.70539401 1018 1315 1018 c 0
 1210.53843107 1018 1106.69168312 1033.89686195 1085.5 947.5 c 0
 1073.70637773 899.418309197 1077 843.790307592 1077 777 c 2
 1077 0 l 1
 860 0 l 1
 860 773 l 2
 860 839.851141423 862.622251768 896.308945866 852.5 946 c 0
 835.987317621 1027.06225895 752.902466176 1018 653 1018 c 0xdc
 540.839436419 1018 423.24717202 1036.23963074 398.5 945.5 c 0
 385.426231802 897.562849942 389 840.415208478 389 773 c 2
 389 0 l 1
 172 0 l 1
 172 1147 l 1
 365 1147 l 1xbc
 391 1052 l 1
 448.630513255 1131.79609528 553.791742654 1180 698 1180 c 0
 849.404235439 1180 976.59424824 1141.7520787 1026 1038 c 1xdc
EndSplineSet
EndChar

StartChar: n
Encoding: 110 110 79
Width: 1292
Flags: W
HStem: 0 21G<172 389 909 1128> 1018 162<491.176 887.466> 1127 20G<172 370.591>
VStem: 172 217<0 992.135> 909 219<0 997.936>
LayerCount: 2
Fore
SplineSet
668 1018 m 0xd8
 551.25854164 1018 424.488368709 1037.45580109 399.5 942.5 c 0
 386.274830944 892.244357587 389 832.496158767 389 762 c 2
 389 0 l 1
 172 0 l 1
 172 1147 l 1
 365 1147 l 1xb8
 391 1054 l 1
 448.297416632 1141.19172096 574.194385781 1180 729 1180 c 0
 937.632348551 1180 1066.96151234 1133.0237718 1108.5 969 c 0
 1121.5 917.666666667 1128 854.666666667 1128 780 c 2
 1128 0 l 1
 909 0 l 1
 909 782 l 2
 909 886.574805517 923.806391933 988.330507639 837.5 1009.5 c 0
 789.905603201 1021.17409733 733.878558109 1018 668 1018 c 0xd8
EndSplineSet
EndChar

StartChar: o
Encoding: 111 111 80
Width: 1313
Flags: W
HStem: -23 162<393.479 917.711> 1018 162<395.772 917.7>
VStem: 157 217<161.541 994.657> 938 219<162.343 995.438>
LayerCount: 2
Fore
SplineSet
157 798 m 2
 157 937.682661071 174.961009505 1034.97754405 251 1096.5 c 0
 339.744675266 1168.30250999 480.112621079 1180 656 1180 c 0
 866.690029243 1180 1050.73140266 1162.66263747 1119 1024.5 c 0
 1148.32373464 965.154346559 1157 888.675065986 1157 798 c 2
 1157 359 l 2
 1157 219.317338929 1139.0389905 122.022455946 1063 60.5 c 0
 973.688256509 -11.7613197332 833.534457176 -23 656 -23 c 256
 416.176856321 -23 222.983221688 -2.51448332577 176 178 c 0
 163.333333333 226.666666667 157 287 157 359 c 2
 157 798 l 2
656 1018 m 0
 577.929884977 1018 515.902877679 1021.12435765 457.5 1010 c 0
 394.658048115 998.030104403 378.383644777 963.591119431 375.5 891.5 c 0
 374.5 866.5 374 836 374 800 c 2
 374 343 l 2
 374 268.862957353 367.288319479 195.170353324 409 164.5 c 0
 437.190647053 143.771583049 484.05076966 141.103108965 537 140 c 0
 569 139.333333333 608.666666667 139 656 139 c 256
 733.953413418 139 795.609019895 136.217447918 854.5 146.5 c 0
 915.632556907 157.173938507 933.560914603 188.42134073 936.5 257 c 0
 937.5 280.333333333 938 309 938 343 c 2
 938 800 l 2
 938 877.019041991 945.527753401 958.478776811 903 991 c 0
 874.87967694 1012.50377646 828.220075155 1015.89236958 774.5 1017 c 0
 742.166666667 1017.66666667 702.666666667 1018 656 1018 c 0
EndSplineSet
EndChar

StartChar: p
Encoding: 112 112 81
Width: 1237
Flags: W
HStem: -408 21G<174 384> -23 162<471.611 923.067> 1018 162<491.344 921.582> 1127 20G<174 372.208>
VStem: 174 210<-408 103 167.471 992.987> 945 219<163.852 995.351>
LayerCount: 2
Fore
SplineSet
676 139 m 0xec
 749.788772541 139 809.992550686 135.998510137 865 147 c 0
 954.169038669 164.833807734 945 247.652503944 945 357 c 2
 945 814 l 2
 945 890.798576623 951.517874158 962.554030159 906 992.5 c 0
 873.854773599 1013.64817526 823.07923158 1015.90416544 765 1017 c 0
 729.666666667 1017.66666667 686 1018 634 1018 c 0
 573.333333333 1018 526.5 1016.33333333 493.5 1013 c 0
 432.053721977 1006.79330525 400.774766778 984.96951363 395 926.5 c 0
 392.333333333 899.5 391 862 391 814 c 2
 391 357 l 2
 391 279.768185803 383.892375634 201.368738797 426.5 168.5 c 0
 455.321961053 146.265915759 501.332558648 142.173493103 556 140.5 c 0
 588.666666667 139.5 628.666666667 139 676 139 c 0xec
743 1180 m 0
 967.779548133 1180 1114.07379107 1137.61628643 1149 956 c 0
 1159 904 1164 841.666666667 1164 769 c 2
 1164 348 l 2
 1164 142.416830893 1099.6997566 38.0192600976 932 -2 c 0
 873.333333333 -16 799 -23 709 -23 c 0
 592.421486019 -23 501.625282413 -2.79431699706 441 40 c 0
 414.333333333 58 395.333333333 79 384 103 c 1
 384 -408 l 1
 174 -408 l 1
 174 1147 l 1
 367 1147 l 1xdc
 392 1051 l 1
 442.494556285 1146.67389612 594.365546274 1180 743 1180 c 0
EndSplineSet
EndChar

StartChar: q
Encoding: 113 113 82
Width: 1226
Flags: W
HStem: -408 21G<843 1053> -23 162<312.051 754.875> 1018 162<312.098 736.433> 1127 20G<854.792 1053>
VStem: 73 219<163.856 993.986> 843 210<-408 103 169.39 993.664>
LayerCount: 2
Fore
SplineSet
561 139 m 0xec
 637.00144388 139 698.531545226 136.572296524 754.5 148.5 c 0
 842.505767749 167.255327553 836 248.322409527 836 357 c 2
 836 814 l 2
 836 931.353264168 844.348054199 1001.7528364 737.5 1013 c 0
 705.833333333 1016.33333333 661 1018 603 1018 c 0
 517.645566921 1018 449.61443148 1020.88056154 384.5 1010.5 c 0
 319.641742034 1000.16027772 296.553479825 971.247862576 293.5 900 c 0
 292.5 876.666666667 292 848 292 814 c 2
 292 357 l 2
 292 279.459841725 282.958710734 199.517379422 325.5 166 c 0
 372.377310817 129.066361175 472.604318264 139 561 139 c 0xec
494 1180 m 0
 615.252568565 1180 707.540994353 1157.45989555 773 1115 c 0
 801.666666667 1096.33333333 822.333333333 1075 835 1051 c 1
 860 1147 l 1
 1053 1147 l 1xdc
 1053 -408 l 1
 843 -408 l 1
 843 103 l 1
 818.068410841 46.9039243913 761.486746517 18.6692186625 691 -3.5 c 0
 649.666666667 -16.5 595.333333333 -23 528 -23 c 0
 305.697119644 -23 141.979396323 13.4605979201 93.5 179 c 0
 79.8333333333 225.666666667 73 282 73 348 c 2
 73 769 l 2
 73 982.835060004 109.527788058 1110.45017122 276.5 1157 c 0
 331.5 1172.33333333 404 1180 494 1180 c 0
EndSplineSet
EndChar

StartChar: r
Encoding: 114 114 83
Width: 802
Flags: W
HStem: 0 21G<174 391> 1024 156<526.476 723> 1127 20G<174 350.636>
VStem: 174 217<0 966.927> 174 173<1068.15 1147>
LayerCount: 2
Fore
SplineSet
647 1024 m 0xc8
 496.577595309 1024 391 989.566641372 391 838 c 2
 391 0 l 1
 174 0 l 1xd0
 174 1147 l 1
 347 1147 l 1xa8
 373 1004 l 1
 410.607680204 1093.84056938 522.306210164 1145.78342296 627 1168.5 c 0
 662.333333333 1176.16666667 694.333333333 1180 723 1180 c 1
 723 1024 l 1
 686 1024 686 1024 647 1024 c 0xc8
EndSplineSet
EndChar

StartChar: s
Encoding: 115 115 84
Width: 1231
Flags: W
HStem: -23 138<399.856 830.824> 1042 138<427.458 820.868>
VStem: 152 204<160.618 348> 169 210<743.897 994.923> 856 198<833 1008.66> 871 205<157.208 461.211>
LayerCount: 2
Fore
SplineSet
169 833 m 0xd4
 169 1107.92452625 342.616172904 1180 615 1180 c 0
 819.185112758 1180 969.105808081 1169.55077594 1026.5 1024.5 c 0
 1044.83333333 978.166666667 1054 914 1054 832 c 1
 856 833 l 1
 857.646287446 958.11784593 841.670067565 1028.77749437 731 1038 c 0
 699 1040.66666667 658.666666667 1042 610 1042 c 0
 460.027834438 1042 379 1013.78759506 379 862 c 0xd8
 379 641.960640509 648.875385043 695.561797317 830.5 656 c 0
 991.583577162 620.912488143 1076 522.10592556 1076 322 c 0
 1076 116.834407582 983.454285261 13.3279052822 807.5 -11.5 c 0
 753.166666667 -19.1666666667 694.333333333 -23 631 -23 c 0
 444.441857898 -23 286.116099236 -8.60765327318 210.5 101.5 c 0
 169.136776979 161.730658083 152 242.151156062 152 348 c 1
 356 348 l 1xe4
 354.367284605 204.321045274 377.443488771 126.638698906 506.5 118.5 c 0
 543.5 116.166666667 589 115 643 115 c 0
 759.422584679 115 837.49190027 123.563224877 860.5 214.5 c 0
 867.5 242.166666667 871 279 871 325 c 0
 871 447.654179597 821.021508835 493.96729824 711.5 503 c 0
 534.162868139 517.625742834 325.089028339 528.667251688 233 631.5 c 0
 191.244161314 678.127353199 169 742.690544932 169 833 c 0xd4
EndSplineSet
EndChar

StartChar: t
Encoding: 116 116 85
Width: 708
Flags: W
HStem: -24 157<434.114 631> 1028 119<49 212 429 642>
VStem: 212 217<134.566 1028 1147 1462>
LayerCount: 2
Fore
SplineSet
460 -24 m 0
 319.821018141 -24 212 24.7421930315 212 166 c 2
 212 1028 l 1
 49 1028 l 1
 49 1147 l 1
 212 1147 l 1
 212 1462 l 1
 429 1462 l 1
 429 1147 l 1
 642 1147 l 1
 642 1028 l 1
 429 1028 l 1
 429 133 l 1
 631 133 l 1
 631 -16 l 1
 575.463943631 -21.1661447785 519.519732852 -24 460 -24 c 0
EndSplineSet
EndChar

StartChar: u
Encoding: 117 117 86
Width: 1291
Flags: W
HStem: -24 162<404.602 798.785> 0 21G<924.314 1120> 1127 20G<164 383 903 1120>
VStem: 164 219<158.064 1147> 903 217<163.865 1147>
LayerCount: 2
Fore
SplineSet
624 138 m 0xb8
 740.74145836 138 867.511631291 118.544198907 892.5 213.5 c 0
 905.725169056 263.755642413 903 323.503841233 903 394 c 2
 903 1147 l 1
 1120 1147 l 1
 1120 0 l 1
 930 0 l 1x78
 901 102 l 1
 865.872829282 47.0183414848 807.9420578 18.5552691161 730.5 -4.5 c 0
 686.833333333 -17.5 631 -24 563 -24 c 0
 354.623310173 -24 225.181971477 22.9784195894 183.5 186.5 c 0
 170.5 237.5 164 300.666666667 164 376 c 2
 164 1147 l 1
 383 1147 l 1
 383 374 l 2
 383 269.425194483 368.193608067 167.669492361 454.5 146.5 c 0
 502.094396799 134.825902672 558.121441891 138 624 138 c 0xb8
EndSplineSet
EndChar

StartChar: v
Encoding: 118 118 87
Width: 1163
Flags: W
HStem: 0 21G<480.729 721.399> 1127 20G<71 289.795 854.427 1082>
LayerCount: 2
Fore
SplineSet
1082 1147 m 1
 715 0 l 1
 488 0 l 1
 71 1147 l 1
 283 1147 l 1
 600 214 l 1
 860 1147 l 1
 1082 1147 l 1
EndSplineSet
EndChar

StartChar: w
Encoding: 119 119 88
Width: 1833
Flags: W
HStem: 0 21G<434.403 672.656 1172.98 1411.34> 1127 20G<119 339.672 811.148 1022.76 1491.31 1712>
LayerCount: 2
Fore
SplineSet
1281 231 m 1
 1496 1147 l 1
 1712 1147 l 1
 1406 0 l 1
 1179 0 l 1
 915 877 l 1
 667 0 l 1
 440 0 l 1
 119 1147 l 1
 335 1147 l 1
 549 231 l 1
 817 1147 l 1
 1017 1147 l 1
 1281 231 l 1
EndSplineSet
EndChar

StartChar: x
Encoding: 120 120 89
Width: 1300
Flags: W
HStem: 0 21G<155 394.81 907.19 1146> 1127 20G<161 399.435 903.423 1138>
LayerCount: 2
Fore
SplineSet
651 420 m 1
 382 0 l 1
 155 0 l 1
 537 578 l 1
 161 1147 l 1
 387 1147 l 1
 650 724 l 1
 916 1147 l 1
 1138 1147 l 1
 768 578 l 1
 1146 0 l 1
 920 0 l 1
 651 420 l 1
EndSplineSet
EndChar

StartChar: y
Encoding: 121 121 90
Width: 1203
Flags: W
HStem: -300 151<254.484 548.051> 1127 20G<112 335.41 914.077 1145>
LayerCount: 2
Fore
SplineSet
657 259 m 1
 920 1147 l 1
 1145 1147 l 1
 755 3 l 1
 714.924193025 -141.718191856 696.91493627 -300 514 -300 c 0
 454.167398815 -300 375.378884619 -284.25888789 323 -272 c 0
 286.333333333 -264 248.333333333 -254.666666667 209 -244 c 1
 241 -101 l 1
 312.249615494 -118.812403874 394.537939636 -134.320990814 468 -145.5 c 0
 483.333333333 -147.833333333 491.666666667 -149 493 -149 c 0
 535.906608525 -149 547.179270754 -115.966576668 557.5 -79.5 c 0
 562.5 -61.8333333333 568 -39 574 -11 c 1
 502 185 l 1
 362.395360749 526.09587116 243.038401296 812.124085577 112 1147 c 1
 328 1147 l 1
 657 259 l 1
EndSplineSet
EndChar

StartChar: z
Encoding: 122 122 91
Width: 1055
Flags: W
HStem: 0 139<374 900> 1004 143<187 689>
LayerCount: 2
Fore
SplineSet
904 1147 m 1
 904 1004 l 1
 374 139 l 1
 900 139 l 1
 900 0 l 1
 146 0 l 1
 146 147 l 1
 689 1004 l 1
 187 1004 l 1
 187 1147 l 1
 904 1147 l 1
EndSplineSet
EndChar

StartChar: braceleft
Encoding: 123 123 92
Width: 932
Flags: W
HStem: -172 164<612.631 776> 664 194<107 206.214> 1530 164<608.639 775>
VStem: 107 669
CounterMasks: 1 e0
LayerCount: 2
Fore
SplineSet
374 758 m 1
 494.448362483 697.775818758 475.714271562 498.181989291 489.5 331.5 c 0
 505.80374521 134.372898825 560.064715272 -8 776 -8 c 1
 776 -172 l 1
 574.926016162 -172 432.088289646 -114.784872891 359.5 8.5 c 0
 302.62120191 105.103672946 285.125023766 228.333016458 274.5 370 c 0
 263.992202306 510.103969248 256.088167222 664 107 664 c 1
 107 858 l 1
 250.574359797 858 259.433336367 1024.47060965 277.5 1152 c 0
 304.689925221 1343.92888391 339.488118199 1511.75285196 464.5 1607 c 0
 538.753659387 1663.57421668 640.203715522 1694 775 1694 c 1
 775 1530 l 1
 615.691477227 1530 534.123502837 1449.92269385 507.5 1320 c 0
 476.55899005 1169.00787144 500.714942756 955.949425763 440 829 c 0
 425.333333333 798.333333333 403.333333333 774.666666667 374 758 c 1
EndSplineSet
EndChar

StartChar: bar
Encoding: 124 124 93
Width: 543
Flags: W
VStem: 175 196<-98 1716>
LayerCount: 2
Fore
SplineSet
371 1716 m 1
 371 -98 l 1
 175 -98 l 1
 175 1716 l 1
 371 1716 l 1
EndSplineSet
EndChar

StartChar: braceright
Encoding: 125 125 94
Width: 932
Flags: W
HStem: -172 164<107 274.452> 664 194<676.441 776> 1530 164<108 271.573>
VStem: 108 668
CounterMasks: 1 e0
LayerCount: 2
Fore
SplineSet
509 758 m 1
 390.983515999 825.054820455 406.01077914 1021.25771535 393 1193 c 0
 378.120745032 1389.40616558 321.529049686 1530 108 1530 c 1
 108 1694 l 1
 414.128929192 1694 543.724670634 1536.72581709 586.5 1276 c 0
 599.617296975 1196.04695177 609.941326031 1114.85674288 623.5 1038.5 c 0
 639.723712132 947.134884308 671.182592523 858 776 858 c 1
 776 664 l 1
 626.134081033 664 618.995771448 509.94361931 608.5 370 c 0
 593.577768193 171.036909239 561.863273687 6.75057310177 438 -85 c 0
 359.292950382 -143.301518235 250.033109632 -172 107 -172 c 1
 107 -8 l 1
 268.177038963 -8 348.591906146 72.6885019905 375.5 204 c 0
 391.672064353 282.919674044 398.277436679 373.794128746 401 465 c 0
 404.797924948 592.230485746 421.639339243 714.319669621 509 758 c 1
EndSplineSet
EndChar

StartChar: asciitilde
Encoding: 126 126 95
Width: 1648
Flags: W
HStem: 839 165<941.732 1133.48> 952 168<494.557 724.456>
LayerCount: 2
Fore
SplineSet
522 952 m 0x40
 470.233680162 952 432.387621893 924.519087763 402.5 903 c 0
 394.166666667 897 387.666666667 894 383 894 c 0
 371.666666667 894 366 899.666666667 366 911 c 0
 366 917 368.333333333 923.333333333 373 930 c 0
 428.526880403 1021.83291759 498.007040114 1120 641 1120 c 0x40
 734.016710824 1120 827.648985499 1087.53057859 902.5 1062 c 0
 945.5 1047.33333333 986 1034 1024 1022 c 0
 1062 1010 1094.66666667 1004 1122 1004 c 0
 1174.18503008 1004 1211.09034988 1033.14866591 1240.5 1055.5 c 0
 1248.83333333 1061.83333333 1255.66666667 1065 1261 1065 c 0
 1272.33333333 1065 1278 1059.33333333 1278 1048 c 0
 1278 1042 1275.66666667 1035.66666667 1271 1029 c 0
 1207.11820186 934.278713104 1127.50853483 839 973 839 c 0x80
 898.136076528 839 822.089994669 872.522102767 758.5 895.5 c 0
 690.042235326 920.236839336 607.391631992 952 522 952 c 0x40
EndSplineSet
EndChar

StartChar: exclamdown
Encoding: 161 161 96
Width: 815
Flags: W
HStem: 1244 312<288.741 527.599>
VStem: 242 330<1289.34 1510.86> 283 251<-3.89775 626.23>
LayerCount: 2
Fore
SplineSet
404 -38 m 0xa0
 323.918640184 -38 283 35.2609314092 283 115 c 0
 283 209.197783159 296.525073992 312.966192841 305.5 411 c 0
 320.78150676 577.921073837 337.00533484 757.28334275 362 913.5 c 0
 368.759622481 955.747640505 366.839555718 959.062370549 385.5 979.5 c 0
 392.5 987.166666667 399.333333333 991 406 991 c 0
 442.159988944 991 444.115238608 944.290839332 450.5 905 c 0
 487.29943596 678.541932556 514.270146995 423.082868568 531 180.5 c 0
 533 151.5 534 130.333333333 534 117 c 0
 534 31.9932884589 489.37271379 -38 404 -38 c 0xa0
572 1400 m 256xc0
 572 1304.14050849 501.637713396 1244 406 1244 c 256
 311.649762804 1244 242 1305.99326415 242 1400 c 256
 242 1494.51802404 311.975205157 1556 406 1556 c 256
 501.639710801 1556 572 1495.85704965 572 1400 c 256xc0
EndSplineSet
EndChar

StartChar: cent
Encoding: 162 162 97
Width: 1104
Flags: W
HStem: 117 162<330.479 824.204> 1158 162<332.772 821.995> 1485 20G<546 629>
VStem: 94 217<301.541 1134.66> 546 83<-72 1505> 845 209<299.357 515 906 1133.98>
LayerCount: 2
Fore
SplineSet
546 1505 m 1
 629 1505 l 1
 629 -72 l 1
 546 -72 l 1
 546 1505 l 1
845 906 m 1
 845 940 l 2
 845 994.666666667 843.666666667 1036.66666667 841 1066 c 0
 835.369118787 1127.93969334 803.93998798 1150.05262218 738.5 1154.5 c 0
 704.166666667 1156.83333333 655.666666667 1158 593 1158 c 0
 515.979117431 1158 452.35380834 1161.01977302 394.5 1150 c 0
 331.658048115 1138.0301044 315.383644777 1103.59111943 312.5 1031.5 c 0
 311.5 1006.5 311 976 311 940 c 2
 311 483 l 2
 311 408.862957353 304.288319479 335.170353324 346 304.5 c 0
 374.190647053 283.771583049 421.05076966 281.103108965 474 280 c 0
 506 279.333333333 545.666666667 279 593 279 c 0
 662.28062192 279 718.329631099 276.350463252 770 286.5 c 0
 853.275536263 302.857694623 845 381.227850003 845 483 c 2
 845 515 l 1
 1054 515 l 1
 1054 499 l 2
 1054 362.203263332 1038.46872689 263.217166934 968 200.5 c 0
 888.040236748 129.335810706 758.292653534 117 593 117 c 0
 353.176856321 117 159.983221688 137.485516674 113 318 c 0
 100.333333333 366.666666667 94 427 94 499 c 2
 94 938 l 2
 94 1077.68266107 111.961009505 1174.97754405 188 1236.5 c 0
 276.744675266 1308.30250999 417.112621079 1320 593 1320 c 0
 822.10270142 1320 991.147829301 1293.01126816 1035.5 1118 c 0
 1047.83333333 1069.33333333 1054 1009.33333333 1054 938 c 2
 1054 906 l 1
 845 906 l 1
EndSplineSet
EndChar

StartChar: sterling
Encoding: 163 163 98
Width: 1820
Flags: W
HStem: 0 222<149 276.243> 0 174<536 719.653 924.644 1326.5> 723 158<151 315 536 1198> 1373 184<611.271 1259.81>
VStem: 315 221<260.956 723 882 1301.56> 1304 205<1046 1332.97> 1327 203<181.225 510>
LayerCount: 2
Fore
SplineSet
149 222 m 1xba
 217.167190386 214.425867735 272.977905723 252.577980013 299.5 294.5 c 0
 309.833333333 310.833333333 315 328.666666667 315 348 c 2
 315 724 l 1
 151 724 l 1
 151 882 l 1
 315 882 l 1
 315 1111.22224175 312.83895991 1330.30994532 419.5 1444.5 c 0
 521.229815808 1553.41074398 721.98457665 1557 941 1557 c 0
 1174.28775415 1557 1401.23947227 1545.61744327 1483.5 1394 c 0
 1500.5 1362.66666667 1509 1324.66666667 1509 1280 c 2
 1509 1046 l 1
 1304 1046 l 1xbc
 1304 1159.72550952 1317.74106915 1280.67670473 1259.5 1333.5 c 0
 1225.32976743 1364.49160629 1166.42462656 1370.8630142 1096.5 1372 c 0
 1055.5 1372.66666667 1005 1373 945 1373 c 0
 801.607280281 1373 650.8830116 1387.81832009 587.5 1311.5 c 0
 547.587791467 1263.44244279 540.238081457 1183.05894154 538 1088.5 c 0
 536.666666667 1032.16666667 536 963 536 881 c 1
 1198 881 l 1
 1198 723 l 1
 536 723 l 1
 536 174 l 1
 1327 174 l 1
 1327 510 l 1
 1530 510 l 1
 1530 274.317861549 1528.01298286 90.4948810622 1359.5 28 c 0
 1309.16666667 9.33333333333 1240 0 1152 0 c 0
 988.899872075 0 904.127466362 36.4567931218 825 122 c 1
 751.196929991 41.6366571009 648.179654689 1.73881063295 502 0.5 c 0
 462.666666667 0.166666666667 423.666666667 0 385 0 c 2x7a
 149 0 l 1
 149 222 l 1xba
EndSplineSet
EndChar

StartChar: currency
Encoding: 164 164 99
Width: 1625
Flags: W
HStem: 289 118<588.103 1033.32> 1138 101<588.63 1033.64>
VStem: 317 118<558.956 985.333> 1188 119<561.631 985.666>
LayerCount: 2
Fore
SplineSet
447 417 m 1
 363.762106925 496.618854245 317 610.661152189 317 764 c 256
 317 917.221684166 363.805808814 1030.42294756 447 1110 c 1
 293 1281 l 1
 363 1351 l 1
 527 1170 l 1
 600.104886382 1214.67520834 693.356358379 1239 812 1239 c 0
 927.09865947 1239 1018.58676086 1216.11742741 1090 1173 c 1
 1256 1350 l 1
 1328 1280 l 1
 1175 1111 l 1
 1258.11002277 1031.50345648 1307 917.148650263 1307 764 c 256
 1307 610.967620329 1258.03868977 496.428311952 1175 417 c 1
 1329 247 l 1
 1257 178 l 1
 1094 357 l 1
 1021.28702014 313.910826748 928.408997439 289 812 289 c 0
 692.443836875 289 599.505684575 313.079859426 526 358 c 1
 362 178 l 1
 292 247 l 1
 447 417 l 1
811 1138 m 256
 556.562134233 1138 435 1025.66995476 435 773 c 0
 435 519.56540998 555.976254831 407 811 407 c 256
 1066.04903012 407 1188 519.410037493 1188 773 c 0
 1188 1025.81212624 1065.46013401 1138 811 1138 c 256
EndSplineSet
EndChar

StartChar: yen
Encoding: 165 165 100
Width: 1389
Flags: W
HStem: 0 21G<581 802> 293 101<227 1143> 572 100<227 1143> 1479 20G<114 358.875 1041.95 1277>
VStem: 581 221<0 510>
LayerCount: 2
Fore
SplineSet
227 672 m 1
 1143 672 l 1
 1143 572 l 1
 227 572 l 1
 227 672 l 1
1143 293 m 1
 227 293 l 1
 227 394 l 1
 1143 394 l 1
 1143 293 l 1
114 1499 m 1
 350 1499 l 1
 697 717 l 1
 1051 1499 l 1
 1277 1499 l 1
 802 510 l 1
 802 0 l 1
 581 0 l 1
 581 510 l 1
 114 1499 l 1
EndSplineSet
EndChar

StartChar: brokenbar
Encoding: 166 166 101
Width: 943
Flags: W
VStem: 399 209<-249 563 819 1631>
LayerCount: 2
Fore
SplineSet
608 563 m 1
 608 -249 l 1
 399 -249 l 1
 399 563 l 1
 608 563 l 1
608 1631 m 1
 608 819 l 1
 399 819 l 1
 399 1631 l 1
 608 1631 l 1
EndSplineSet
EndChar

StartChar: section
Encoding: 167 167 102
Width: 1231
Flags: W
HStem: -173 130<446.6 844.132> 1449 131<460.106 853.891>
VStem: 215 192<-3.61523 177> 231 198<581.348 893.331 1068.13 1418.56> 881 198<-9.35157 324.973 521.976 813.184 1230 1419.49>
LayerCount: 2
Fore
SplineSet
965 456 m 1xd8
 1042.25328518 394.197371854 1076 293.646433681 1076 152 c 0
 1076 -40.2599334621 992.937518634 -137.9558306 829 -162 c 0
 779 -169.333333333 725 -173 667 -173 c 0
 461.585631512 -173 310.429695696 -153.551233361 246.5 -12.5 c 0
 225.5 33.8333333333 215 97 215 177 c 1
 407 177 l 1xe8
 407 44.2729805112 426.24133647 -31.3498956401 545 -39.5 c 0
 579 -41.8333333333 621.333333333 -43 672 -43 c 0
 781.383732249 -43 851.260150773 -35.3724044464 873 50.5 c 0
 879.666666667 76.8333333333 883 112 883 156 c 0
 883 288.565955246 850.052517217 356.266759407 738 369 c 0
 708.666666667 372.333333333 677 376.666666667 643 382 c 0
 459.921010423 406.645248597 298.260990244 425.013217376 247 582 c 0
 236.333333333 614.666666667 231 654.666666667 231 702 c 0
 231 828.408505199 267.06683345 909.223647141 339 960 c 1
 267.115821362 1018.11912315 234 1114.74472914 234 1254 c 0
 234 1444.38227842 313.569521956 1544.67485947 475 1569 c 0
 523.666666667 1576.33333333 576.333333333 1580 633 1580 c 0
 838.414368488 1580 989.570304304 1560.55123336 1053.5 1419.5 c 0
 1074.5 1373.16666667 1085 1310 1085 1230 c 1
 893 1230 l 1
 893 1360.79286711 873.846579586 1437.32073943 757 1445.5 c 0
 723.666666667 1447.83333333 682.333333333 1449 633 1449 c 0
 527.191758474 1449 456.880476119 1441.66721775 436.5 1358 c 0
 430.166666667 1332 427 1296.66666667 427 1252 c 0
 427 1143.91443246 429.117876948 1070.08991131 514.5 1050 c 0
 559.577557399 1039.39351591 604.596487625 1035.03471514 657 1025 c 1
 793.026056711 994.771987397 952.110508188 988.940912999 1026 898 c 0
 1064.36594629 850.780373801 1079 784.874343075 1079 695 c 0
 1079 575.351507474 1038.4329296 500.8756792 965 456 c 1xd8
456 906 m 1
 441.264380816 854.425332857 429 794.781917159 429 729 c 0xd8
 429 636.678918282 445.769564883 583.069354963 512 558.5 c 0
 564.001688497 539.209051041 627.850229728 532.770057034 699.5 526 c 0
 741.833333333 522 791 516.666666667 847 510 c 1
 870.826183225 536.473536916 881 583.979811207 881 638 c 0
 881 737.033721045 876.337940108 805.642428097 806.5 830.5 c 0
 751.056385075 850.234168024 688.652402468 858.036998098 615.5 870.5 c 0
 570.5 878.166666667 517.333333333 890 456 906 c 1
EndSplineSet
EndChar

StartChar: dieresis
Encoding: 168 168 103
Width: 1530
Flags: W
HStem: 80 290<175 642 885 1355>
VStem: 175 467<80 370> 885 470<80 370>
LayerCount: 2
Fore
SplineSet
642 370 m 1
 642 80 l 1
 175 80 l 1
 175 370 l 1
 642 370 l 1
1355 370 m 1
 1355 80 l 1
 885 80 l 1
 885 370 l 1
 1355 370 l 1
EndSplineSet
EndChar

StartChar: copyright
Encoding: 169 169 104
Width: 2087
Flags: W
HStem: 43 88<690.209 1189.8> 307 115<691.326 1178.99> 1293 115<691.458 1175.31> 1585 88<690.125 1189.87>
VStem: 125 88<608.125 1107.79> 490 162<463.926 1251.08> 1208 155<454.494 725 990 1260.82> 1667 88<608.209 1107.8>
LayerCount: 2
Fore
SplineSet
213 858 m 256
 213 629.282924742 308.854907962 462.145092038 426.5 344.5 c 0
 544.556607162 226.443392838 711.002978414 131 940 131 c 256
 1168.71707526 131 1335.85490796 226.854907962 1453.5 344.5 c 0
 1571.55660716 462.556607162 1667 629.002978414 1667 858 c 256
 1667 1086.71707526 1571.14509204 1253.85490796 1453.5 1371.5 c 0
 1335.44339284 1489.55660716 1168.99702159 1585 940 1585 c 256
 711.282924742 1585 544.145092038 1489.14509204 426.5 1371.5 c 0
 308.443392838 1253.44339284 213 1086.99702159 213 858 c 256
125 858 m 0
 125 1114.23775352 231.696977966 1302.69697797 363.5 1434.5 c 0
 495.957713499 1566.9577135 683.013674451 1673 940 1673 c 256
 1196.71121703 1673 1384.46466645 1566.53533355 1516.5 1434.5 c 0
 1648.76886484 1302.23113516 1755 1114.55760488 1755 858 c 256
 1755 601.762246477 1648.30302203 413.303022034 1516.5 281.5 c 0
 1384.23113516 149.231135161 1196.55760488 43 940 43 c 256
 683.762246477 43 495.303022034 149.696977966 363.5 281.5 c 0
 231.042286501 413.957713499 125 601.013674451 125 858 c 0
1363 725 m 1
 1363 525.827539471 1348.58097171 369.517260907 1196.5 327 c 0
 1126.10782888 307.32046829 1043.07776674 307 948 307 c 0
 799.542623076 307 665.686417368 307.178591075 587 373.5 c 0
 499.586381713 447.177192556 490 600.435184313 490 769 c 2
 490 946 l 2
 490 1165.09744627 506.117510326 1338.05301764 673 1385.5 c 0
 750.646446018 1407.57595034 842.497458848 1408 948 1408 c 0
 1082.51719354 1408 1203.15955848 1407.51656191 1274.5 1347.5 c 0
 1353.93471818 1280.67396724 1363 1143.12190302 1363 990 c 1
 1208 990 l 1
 1208 1073.63334981 1211.20325452 1142.29212983 1197.5 1203.5 c 0
 1182.17185367 1271.96572029 1138.45622794 1288.73743052 1056.5 1291.5 c 0
 1026.83333333 1292.5 990.666666667 1293 948 1293 c 0
 845.147232618 1293 736.172346742 1304.80681609 690.5 1250 c 0
 662.019901248 1215.8238815 656.241179183 1159.17508068 654 1092.5 c 0
 652.666666667 1052.83333333 652 1004 652 946 c 2
 652 769 l 2
 652 673.097329447 648.978048095 594.805311567 664.5 524.5 c 0
 681.838695014 445.965910818 730.139515038 426.315814549 824 423.5 c 0
 857.333333333 422.5 898.666666667 422 948 422 c 0
 1038.2447459 422 1133.78767748 412.721173847 1174.5 460 c 0
 1199.70130462 489.266031177 1204.81982273 538.753854577 1206.5 597 c 0
 1207.5 631.666666667 1208 674.333333333 1208 725 c 1
 1363 725 l 1
EndSplineSet
EndChar

StartChar: guillemotleft
Encoding: 171 171 106
Width: 1849
Flags: W
LayerCount: 2
Fore
SplineSet
866 1254 m 0
 905.388021278 1254 935 1224.48093221 935 1187 c 0
 935 1157.76389809 921.05966301 1137.92666002 909 1116 c 1
 542 716 l 1
 909 316 l 1
 921.12415521 295.058277365 935 273.896625091 935 245 c 0
 935 206.697457166 905.898111287 178 866 178 c 0
 836.430384752 178 813.552309366 186.721627581 795 202 c 2
 368 574 l 2
 331.74718302 605.721214857 302 654.695295839 302 717 c 0
 302 778.367909789 331.635983801 826.04374334 368 858 c 2
 795 1229 l 1
 817.976211202 1244.31747413 834.225734361 1254 866 1254 c 0
1417 1254 m 0
 1456.38802128 1254 1486 1224.48093221 1486 1187 c 0
 1486 1157.76389809 1472.05966301 1137.92666002 1460 1116 c 1
 1093 716 l 1
 1460 316 l 1
 1472.12415521 295.058277365 1486 273.896625091 1486 245 c 0
 1486 206.697457166 1456.89811129 178 1417 178 c 0
 1387.43038475 178 1364.55230937 186.721627581 1346 202 c 2
 919 574 l 2
 882.305657073 606.246543785 852 653.763004 852 716 c 256
 852 778.813130993 881.286983665 825.833015479 919 858 c 2
 1346 1229 l 1
 1368.9762112 1244.31747413 1385.22573436 1254 1417 1254 c 0
EndSplineSet
EndChar

StartChar: logicalnot
Encoding: 172 172 107
Width: 1390
Flags: W
HStem: 773 269<75 978>
VStem: 978 237<294 773>
LayerCount: 2
Fore
SplineSet
978 294 m 1
 978 773 l 1
 75 773 l 1
 75 1042 l 1
 1215 1042 l 1
 1215 294 l 1
 978 294 l 1
EndSplineSet
EndChar

StartChar: uni00AD
Encoding: 173 173 108
Width: 1217
Flags: W
HStem: 549 289<175 1042>
LayerCount: 2
Fore
SplineSet
1042 549 m 1
 175 549 l 1
 175 838 l 1
 1042 838 l 1
 1042 549 l 1
EndSplineSet
EndChar

StartChar: registered
Encoding: 174 174 109
Width: 2087
Flags: W
HStem: 43 88<690.209 1189.8> 791 109<732 1147.88> 1281 114<732 1147.99> 1585 88<690.125 1189.87>
VStem: 125 88<608.125 1107.79> 571 161<322 791 900 1281> 1180 159<323 777.994 933.82 1251.57> 1667 88<608.209 1107.8>
LayerCount: 2
Fore
SplineSet
1150 853 m 1
 1259.57635503 848.235810651 1339 786.169011127 1339 674 c 2
 1339 323 l 1
 1180 323 l 1
 1180 629 l 2
 1180 719.736456857 1176.96066282 782.331198217 1098 788.5 c 0
 1076.66666667 790.166666667 1049.33333333 791 1016 791 c 2
 732 791 l 1
 732 322 l 1
 571 322 l 1
 571 1395 l 1
 943 1395 l 2
 1175.45797297 1395 1346 1367.02693919 1346 1132 c 0
 1346 965.659194842 1305.84504223 865.368654145 1150 853 c 1
943 900 m 2
 1069.00123067 900 1153.64137052 899.768235864 1176 1001.5 c 0
 1182.66666667 1031.83333333 1186 1073.33333333 1186 1126 c 0
 1186 1229.90741919 1144.23184097 1270.25409906 1049 1277.5 c 0
 1018.33333333 1279.83333333 982.333333333 1281 941 1281 c 2
 732 1281 l 1
 732 900 l 1
 943 900 l 2
213 858 m 256
 213 629.282924742 308.854907962 462.145092038 426.5 344.5 c 0
 544.556607162 226.443392838 711.002978414 131 940 131 c 256
 1168.71707526 131 1335.85490796 226.854907962 1453.5 344.5 c 0
 1571.55660716 462.556607162 1667 629.002978414 1667 858 c 256
 1667 1086.71707526 1571.14509204 1253.85490796 1453.5 1371.5 c 0
 1335.44339284 1489.55660716 1168.99702159 1585 940 1585 c 256
 711.282924742 1585 544.145092038 1489.14509204 426.5 1371.5 c 0
 308.443392838 1253.44339284 213 1086.99702159 213 858 c 256
125 858 m 0
 125 1114.23775352 231.696977966 1302.69697797 363.5 1434.5 c 0
 495.957713499 1566.9577135 683.013674451 1673 940 1673 c 256
 1196.71121703 1673 1384.46466645 1566.53533355 1516.5 1434.5 c 0
 1648.76886484 1302.23113516 1755 1114.55760488 1755 858 c 256
 1755 601.762246477 1648.30302203 413.303022034 1516.5 281.5 c 0
 1384.23113516 149.231135161 1196.55760488 43 940 43 c 256
 683.762246477 43 495.303022034 149.696977966 363.5 281.5 c 0
 231.042286501 413.957713499 125 601.013674451 125 858 c 0
EndSplineSet
EndChar

StartChar: macron
Encoding: 175 175 110
Width: 1217
Flags: W
HStem: 651 187<175 1042>
LayerCount: 2
Fore
SplineSet
1042 651 m 1
 175 651 l 1
 175 838 l 1
 1042 838 l 1
 1042 651 l 1
EndSplineSet
EndChar

StartChar: degree
Encoding: 176 176 111
Width: 979
Flags: W
HStem: 1046 109<386.758 594.239> 1486 111<384.385 593.39>
VStem: 145 199<1196.11 1445.01> 637 197<1197.87 1442.66>
LayerCount: 2
Fore
SplineSet
145 1321 m 256
 145 1466.42450597 252.827994306 1546.86975448 367.5 1579.5 c 0
 408.5 1591.16666667 449 1597 489 1597 c 0
 633.419950102 1597 747.367468955 1533.92178545 803 1441.5 c 0
 823.666666667 1407.16666667 834 1367 834 1321 c 256
 834 1175.83326932 725.506223623 1094.79033824 610.5 1063 c 0
 569.5 1051.66666667 529 1046 489 1046 c 256
 345.382944657 1046 231.373098075 1109.50920804 176 1201.5 c 0
 155.333333333 1235.83333333 145 1275.66666667 145 1321 c 256
489 1155 m 256
 582.878127783 1155 637 1227.37819596 637 1321 c 256
 637 1414.11084368 582.389939354 1486 489 1486 c 256
 396.08877305 1486 344 1413.5462033 344 1321 c 256
 344 1227.94356641 395.613867259 1155 489 1155 c 256
EndSplineSet
EndChar

StartChar: plusminus
Encoding: 177 177 112
Width: 1373
Flags: W
HStem: -24 163<194 1067> 585 169<195 537 723 1066>
VStem: 537 186<223 585 754 1117>
LayerCount: 2
Fore
SplineSet
723 1117 m 1
 723 754 l 1
 1066 754 l 1
 1066 585 l 1
 723 585 l 1
 723 223 l 1
 537 223 l 1
 537 585 l 1
 195 585 l 1
 195 754 l 1
 537 754 l 1
 537 1117 l 1
 723 1117 l 1
1067 -24 m 1
 194 -24 l 1
 194 139 l 1
 1067 139 l 1
 1067 -24 l 1
EndSplineSet
EndChar

StartChar: acute
Encoding: 180 180 115
Width: 1037
Flags: W
HStem: 1406 234<532.693 696.519>
VStem: 212 539
LayerCount: 2
Fore
SplineSet
645 1640 m 0
 705.783994441 1640 751 1598.78962403 751 1539 c 0
 751 1489.2752107 716.017153729 1458.00857686 676 1438 c 1
 659.428722455 1424.19060205 623.705610588 1415.83102311 596 1406 c 0
 481.226903542 1365.27406255 380.741022645 1334.27032194 256 1295 c 0
 248.666666667 1293 242.666666667 1292 238 1292 c 0
 220.666666667 1292 212 1298.33333333 212 1311 c 0
 212 1320.33333333 218.333333333 1330.33333333 231 1341 c 2
 248.5 1357 l 2
 344.725541503 1444.97763795 453.648091697 1551.6433136 569 1620 c 0
 590.790367956 1631.98470238 615.510920605 1640 645 1640 c 0
EndSplineSet
EndChar

StartChar: paragraph
Encoding: 182 182 117
Width: 1500
Flags: W
HStem: 0 21G<666 839 1023 1195> 1501 20G<615.708 1195>
VStem: 191 1004<969.463 1338.3> 666 173<0 794> 1023 172<0 794>
LayerCount: 2
Fore
SplineSet
666 795 m 1xd8
 386.930604535 795 191 881.77109055 191 1163 c 0xe0
 191 1467.54335432 463.41673357 1521 768 1521 c 2
 1195 1521 l 1
 1195 0 l 1
 1023 0 l 1
 1023 794 l 1
 839 794 l 1
 839 0 l 1
 666 0 l 1
 666 795 l 1xd8
EndSplineSet
EndChar

StartChar: cedilla
Encoding: 184 184 118
Width: 804
Flags: W
HStem: -557 128<129.101 355.699> -20 20G<282.167 410>
VStem: 359 242<-423.017 -310.863>
LayerCount: 2
Fore
SplineSet
280 -429 m 0
 320.513361262 -429 359 -411.723183186 359 -371 c 0
 359 -307.762497285 269.367603207 -289 205 -289 c 1
 215.830638738 -242.067232136 231.9324886 -191.477850976 246 -144 c 2
 288 0 l 1
 410 0 l 1
 356 -168 l 1
 486.22787099 -185.363716132 601 -207.644279424 601 -356 c 0
 601 -497.372287143 481.769023256 -557 341 -557 c 0
 233.129032911 -557 137.038685925 -526.107853866 73 -480 c 0
 54.9290867085 -466.948784845 39 -451.480204115 39 -426 c 0
 39 -397.431810651 63.7488264648 -373 92 -373 c 0
 113.265505951 -373 123.59189177 -383.391088333 143.5 -392 c 0
 180.845028586 -408.149201551 227.989033108 -429 280 -429 c 0
EndSplineSet
EndChar

StartChar: guillemotright
Encoding: 187 187 121
Width: 1849
Flags: W
LayerCount: 2
Fore
SplineSet
371 178 m 0
 331.089466286 178 302 206.687102632 302 245 c 0
 302 273.852724713 315.900331431 295.100572471 328 316 c 1
 695 716 l 1
 328 1116 l 1
 315.916427183 1137.97013239 302 1157.71945179 302 1187 c 0
 302 1224.46801862 331.627162167 1254 371 1254 c 0
 402.722403946 1254 419.058974794 1244.2940168 442 1229 c 1
 869 858 l 2
 906.770717366 825.783799894 936 778.888483218 936 716 c 256
 936 653.836400338 905.637254096 606.196374812 869 574 c 2
 442 202 l 2
 423.410085551 186.690658689 400.62340121 178 371 178 c 0
922 178 m 0
 882.089466286 178 853 206.687102632 853 245 c 0
 853 273.852724713 866.900331431 295.100572471 879 316 c 1
 1246 716 l 1
 879 1116 l 1
 866.916427183 1137.97013239 853 1157.71945179 853 1187 c 0
 853 1224.46801862 882.627162167 1254 922 1254 c 0
 953.722403946 1254 970.058974794 1244.2940168 993 1229 c 1
 1420 858 l 2
 1456.42383347 825.991176648 1486 778.445629847 1486 717 c 0
 1486 654.761514326 1456.20229644 605.677009389 1420 574 c 2
 993 202 l 2
 974.410085551 186.690658689 951.62340121 178 922 178 c 0
EndSplineSet
EndChar

StartChar: questiondown
Encoding: 191 191 125
Width: 1084
Flags: W
HStem: -33 322<455.808 855.655> 1190 371<498.893 783.958>
VStem: 105 449<238 433.667> 430 423<1258.06 1493.45>
LayerCount: 2
Fore
SplineSet
937 35 m 1xe0
 823.143641012 0.720666111228 695.709177552 -33 555 -33 c 0
 356.615774543 -33 186.486314009 14.6557934803 125 153 c 0
 111.666666667 183 105 218 105 258 c 0
 105 349.492573282 157.020934705 414.334888965 204.5 470 c 0
 266.934019298 543.198505384 344.458929803 612.309032055 409.5 688.5 c 0
 479.992576628 771.077018336 543.533209753 865.691879915 578 985 c 0
 586.541521465 1013.0649991 608.673155297 1026 643 1026 c 0
 679.124210633 1026 707 1011.48602429 707 974 c 0
 707 852.843004157 666.246702118 745.053187732 630.5 656 c 0
 611.5 608.666666667 594 565 578 525 c 0
 562 485 554 449.333333333 554 418 c 0
 554 330.556478574 614.691088769 289 702 289 c 0
 778.82664179 289 846.864675035 313.988100535 905 337 c 1
 937 35 l 1xe0
853 1376 m 256xd0
 853 1257.01606988 759.128167712 1190 641 1190 c 256
 547.290238018 1190 479.640407019 1233.1374833 447.5 1296.5 c 0
 435.833333333 1319.5 430 1346 430 1376 c 0
 430 1493.91816822 523.875588937 1561 641 1561 c 256
 734.601920349 1561 803.36363209 1518.85455388 835.5 1455.5 c 0
 847.166666667 1432.5 853 1406 853 1376 c 256xd0
EndSplineSet
EndChar

StartChar: Eth
Encoding: 208 208 142
Width: 1531
Flags: W
HStem: -1 165<396 1033.54> 1341 157<396 1037.47>
VStem: 175 221<164 468 754 1341> 175 70<468 754> 1150 221<276.728 608 754 1223.14> 1286 85<478.657 754>
LayerCount: 2
Fore
SplineSet
1371 608 m 2xd8
 1371 283.688031168 1302.00314512 84.6659605561 1043 26.5 c 0
 964.333333333 8.83333333333 867.666666667 0 753 0 c 2
 175 -1 l 1
 175 1498 l 1
 753 1499 l 2
 1058.94051885 1499 1258.15727413 1433.05307932 1334 1204.5 c 0
 1358.66666667 1130.16666667 1371 1036 1371 922 c 2
 1371 608 l 2xd8
753 163 m 2
 947.69495032 163 1088.81492126 182.74249491 1130.5 332.5 c 0
 1151.50265812 407.953993982 1152 497.089204945 1152 600 c 2
 1150 873 l 1
 1150 1063.97062785 1161.03648821 1236.95948897 1031.5 1301 c 0
 960.407409264 1336.14689879 867.946776905 1342 753 1342 c 2
 396 1341 l 1
 396 164 l 1xe8
 753 163 l 2
1286 754 m 1xd4
 245 754 l 1
 245 468 l 1
 1286 468 l 1
 1286 754 l 1xd4
EndSplineSet
EndChar

StartChar: multiply
Encoding: 215 215 149
Width: 1373
Flags: W
LayerCount: 2
Fore
SplineSet
762 670 m 1
 1012 420 l 1
 880 288 l 1
 630 538 l 1
 380 288 l 1
 248 420 l 1
 498 670 l 1
 248 920 l 1
 380 1052 l 1
 630 802 l 1
 880 1052 l 1
 1012 920 l 1
 762 670 l 1
EndSplineSet
EndChar

StartChar: Thorn
Encoding: 222 222 156
Width: 1308
Flags: W
HStem: 0 21G<174 395> 398 161<395 982.472> 1142 157<395 979.01> 1478 20G<174 395>
VStem: 174 221<0 398 559 1142 1299 1498> 1043 219<617.861 1079.01>
LayerCount: 2
Fore
SplineSet
752 1299 m 2
 949.418962762 1299 1109.85511144 1272.2496157 1192 1156.5 c 0
 1239.05490376 1090.19536288 1262 999.250149315 1262 882 c 0
 1262 636.845025358 1207.27998298 476.463584943 1019.5 423.5 c 0
 938.600258351 400.68212415 843.529152068 398 738 398 c 2
 395 398 l 1
 395 0 l 1
 174 0 l 1
 174 1498 l 1
 395 1498 l 1
 395 1299 l 1
 752 1299 l 2
732 559 m 2
 879.682507118 559 996.695732317 559.239422958 1028 673.5 c 0
 1044.48513605 733.670746572 1043 804.593575487 1043 888 c 0
 1043 1042.61138332 1006.35416014 1128.36111157 869 1138 c 0
 831 1140.66666667 787.333333333 1142 738 1142 c 2
 395 1142 l 1
 395 559 l 1
 732 559 l 2
EndSplineSet
EndChar

StartChar: germandbls
Encoding: 223 223 157
Width: 1327
Flags: W
HStem: 0 157<509 969.6> 741 146<545 901.51> 1342 157<412.049 904.008>
VStem: 167 221<-150 1316.09> 927 211<912.361 1317.3> 1002 219<189.758 673.603>
LayerCount: 2
Fore
SplineSet
664 1499 m 0xf8
 885.330487914 1499 1047.41361684 1471.15146048 1109 1314 c 0
 1128.33333333 1264.66666667 1138 1200 1138 1120 c 0xf8
 1138 1006.60420691 1115.33458382 915.423305974 1056 864 c 0
 1032 842.666666667 1005 830.666666667 975 828 c 1
 1152.46966169 812.340912203 1221 635.963620403 1221 437 c 0
 1221 263.161001962 1186.99825304 134.564116045 1083 69 c 0
 983.834273024 6.48247647158 837.018295085 0 672 0 c 2
 509 0 l 1
 509 157 l 1
 671 157 l 2
 756.974503896 157 831.054685999 153.845355041 896.5 165.5 c 0
 967.399753963 178.125983583 994.596091763 213.537468211 999.5 292 c 0
 1001.16666667 318.666666667 1002 351.666666667 1002 391 c 0xf4
 1002 486.878876487 1006.9244909 566.22880646 991.5 637 c 0
 973.132718271 721.273410287 908.644582073 736.933885448 806 739.5 c 0
 766 740.5 716.333333333 741 657 741 c 2
 545 741 l 1
 545 887 l 1
 638 887 l 2
 716.99141423 887 781.690758122 883.879517148 841 895 c 0
 934.413234294 912.51498143 927 996.941719779 927 1110 c 0
 927 1217.59571375 940.934907705 1313.11803793 850 1333.5 c 0
 797.632814975 1345.23747251 737.40912872 1342 666 1342 c 0
 548.912131698 1342 422.970500235 1362.08986754 397.5 1267 c 0
 384.284250672 1217.66120251 387 1159.47111479 387 1090 c 2
 388 -150 l 1
 167 -150 l 1
 168 1102 l 2
 168 1333.11275337 251.965981392 1452.3816099 448 1484 c 0
 510 1494 582 1499 664 1499 c 0xf8
EndSplineSet
EndChar

StartChar: thorn
Encoding: 254 254 188
Width: 1251
Flags: W
HStem: -24 163<483.804 913.878> 1018 162<463.405 912.798>
VStem: 162 217<-402 105 161.01 993.406 1053 1594> 935 219<162.73 992.583>
LayerCount: 2
Fore
SplineSet
378 1053 m 1
 421.843507083 1148.90767174 562.610853406 1180 707 1180 c 0
 926.288540502 1180 1087.2407515 1142.32635096 1134 977.5 c 0
 1147.33333333 930.5 1154 874 1154 808 c 2
 1154 387 l 2
 1154 174.687939416 1118.75286161 45.7816767548 954 -1 c 0
 900 -16.3333333333 829 -24 741 -24 c 0
 612.983470284 -24 516.128860453 -3.1562218175 446 40 c 0
 415.333333333 58.6666666667 393 80.3333333333 379 105 c 1
 379 -402 l 1
 162 -402 l 1
 162 1594 l 1
 378 1594 l 1
 378 1053 l 1
664 1018 m 0
 585.921514256 1018 521.344043536 1020.43607248 463.5 1008.5 c 0
 400.97738953 995.598508951 383.438087165 961.472816747 380.5 889 c 0
 379.5 864.333333333 379 834.333333333 379 799 c 2
 379 342 l 2
 379 222.580439948 372.309824446 155.029310662 481.5 144 c 0
 514.5 140.666666667 561.333333333 139 622 139 c 0
 707.236388088 139 776.417087743 136.124463263 841.5 146.5 c 0
 906.265593799 156.824949736 930.450695343 184.849557997 933.5 256 c 0
 934.5 279.333333333 935 308 935 342 c 2
 935 799 l 2
 935 875.889117646 942.380095076 957.003561455 900.5 990 c 0
 853.092912717 1027.35103847 753.638554594 1018 664 1018 c 0
EndSplineSet
EndChar

StartChar: dotlessi
Encoding: 305 305 229
Width: 522
Flags: W
HStem: 0 21G<154 373> 1127 20G<154 373>
VStem: 154 219<0 1147>
LayerCount: 2
Fore
SplineSet
373 0 m 1
 154 0 l 1
 154 1147 l 1
 373 1147 l 1
 373 0 l 1
EndSplineSet
EndChar

StartChar: dotlessj
Encoding: 567 567 296
Width: 560
Flags: W
HStem: -311 155<17 198.677> 1127 20G<199 416>
VStem: 199 217<-153.771 1147>
LayerCount: 2
Fore
SplineSet
416 -49 m 2
 416 -230.366307399 339.734496432 -311 158 -311 c 0
 108.447079679 -311 60.8193445797 -304.511887642 17 -297 c 1
 13 -156 l 1
 199 -156 l 1
 199 1147 l 1
 416 1147 l 1
 416 -49 l 2
EndSplineSet
EndChar

StartChar: circumflex
Encoding: 710 710 297
Width: 1124
Flags: W
HStem: 1401 397
VStem: 252 621<1417.12 1454>
LayerCount: 2
Fore
SplineSet
873 1440 m 0
 873 1417.1156779 856.22266534 1401 834 1401 c 0
 821.333333333 1401 808 1406 794 1416 c 1
 562 1627 l 1
 331 1416 l 1
 317 1406 303.666666667 1401 291 1401 c 0
 268.781425284 1401 252 1417.12053398 252 1440 c 0
 252 1454 256.666666667 1467.66666667 266 1481 c 2
 457 1754 l 2
 476.69694532 1782.3143589 515.92299374 1798 562 1798 c 256
 608.642337528 1798 647.24645834 1782.07832107 668 1754 c 2
 858 1481 l 2
 866.931702116 1468.71890959 873 1458.32811829 873 1440 c 0
EndSplineSet
EndChar

StartChar: caron
Encoding: 711 711 298
Width: 1122
Flags: W
HStem: 1269 397
VStem: 259 621<1613 1649.88>
LayerCount: 2
Fore
SplineSet
259 1627 m 0
 259 1649.8843221 275.77733466 1666 298 1666 c 0
 310.666666667 1666 324 1661 338 1651 c 1
 569 1440 l 1
 801 1651 l 1
 815 1661 828.333333333 1666 841 1666 c 0
 863.218574716 1666 880 1649.87946602 880 1627 c 0
 880 1608.69520294 873.918400483 1598.26280066 865 1586 c 2
 675 1313 l 2
 655.317061917 1284.70577651 615.067076133 1269 569 1269 c 256
 522.944727711 1269 483.68430575 1284.70381048 464 1313 c 2
 273 1586 l 2
 263.666666667 1599.33333333 259 1613 259 1627 c 0
EndSplineSet
EndChar

StartChar: breve
Encoding: 728 728 299
Width: 1265
Flags: W
HStem: 1368 256<489.613 774.745>
LayerCount: 2
Fore
SplineSet
631 1368 m 256
 399.075771246 1368 243.549409504 1423.23912386 182 1592.5 c 0
 162 1647.5 152 1716 152 1798 c 1
 460 1798 l 1
 458.13914204 1706.81795997 475.810407934 1651.99123369 546.5 1633 c 0
 568.833333333 1627 597 1624 631 1624 c 256
 721.82210748 1624 780.215066508 1642.7606304 796.5 1715.5 c 0
 801.5 1737.83333333 803.666666667 1765.33333333 803 1798 c 1
 1113 1798 l 1
 1113 1563.05741233 1028.4671773 1432.9756747 840 1389 c 0
 780 1375 710.333333333 1368 631 1368 c 256
EndSplineSet
EndChar

StartChar: dotaccent
Encoding: 729 729 300
Width: 876
Flags: W
HStem: 0 417<175 702>
VStem: 175 527<0 417>
LayerCount: 2
Fore
SplineSet
175 0 m 1
 175 417 l 1
 702 417 l 1
 702 0 l 1
 175 0 l 1
EndSplineSet
EndChar

StartChar: ring
Encoding: 730 730 301
Width: 979
Flags: W
HStem: 107 156<395.839 580.908> 540 157<393.379 581.008>
VStem: 143 219<294.462 510.234> 614 222<295.273 507.488>
LayerCount: 2
Fore
SplineSet
143 401 m 0
 143 498.309733333 197.64292954 569.415641456 255.5 615 c 0
 311.754935723 659.32207057 396.158564341 697 489 697 c 0
 637.368358983 697 750.885190083 622.090398048 805.5 524.5 c 0
 825.833333333 488.166666667 836 447 836 401 c 0
 836 303.466234698 781.358805769 233.519868499 723 188 c 0
 666.186474429 143.685450055 582.187506314 107 489 107 c 0
 342.014923253 107 227.67246883 181.700014714 173.5 278.5 c 0
 153.166666667 314.833333333 143 355.666666667 143 401 c 0
614 401 m 0
 614 476.532728446 562.57539067 540 487 540 c 0
 410.117850095 540 362 477.434426134 362 401 c 0
 362 325.765390565 411.479068126 263 487 263 c 256
 562.025474287 263 614 326.196977032 614 401 c 0
EndSplineSet
EndChar

StartChar: ogonek
Encoding: 731 731 302
Width: 804
Flags: W
HStem: -557 128<169.248 446.904> -512 139<398.591 533.991> -20 20G<265.808 425>
VStem: 11 211<-418.93 -264.353>
LayerCount: 2
Fore
SplineSet
522 -373 m 0x70
 544.484300339 -373 563 -390.490197464 563 -413 c 256
 563 -467.617756909 490.549249943 -494.980300023 448 -512 c 0x70
 385.137429877 -537.145028049 310.010879899 -557 225 -557 c 0
 113.496893376 -557 11 -519.396112969 11 -409 c 0
 11 -332.088797324 51.8762402833 -265.373263603 87.5 -215.5 c 0
 146.702261081 -132.616834487 228.616355416 -61.3665067817 303 0 c 1
 425 0 l 1
 348.79479085 -71.0093994356 273.992661337 -159.687459546 237 -264.5 c 0
 227 -292.833333333 222 -318.333333333 222 -341 c 0
 222 -400.183393387 256.784898269 -429 320 -429 c 0xb0
 386.402397199 -429 449.921871826 -400.39914917 497 -379 c 0
 505.666666667 -375 514 -373 522 -373 c 0x70
EndSplineSet
EndChar

StartChar: tilde
Encoding: 732 732 303
Width: 1648
Flags: W
HStem: 379 165<603.732 795.478> 492 168<156.557 386.456>
LayerCount: 2
Fore
SplineSet
184 492 m 0x40
 132.233680162 492 94.387621893 464.519087763 64.5 443 c 0
 56.1666666667 437 49.6666666667 434 45 434 c 0
 33.6666666667 434 28 439.666666667 28 451 c 0
 28 457 30.3333333333 463.333333333 35 470 c 0
 90.5268804032 561.83291759 160.007040114 660 303 660 c 0x40
 396.016710824 660 489.648985499 627.53057859 564.5 602 c 0
 607.5 587.333333333 648 574 686 562 c 0
 724 550 756.666666667 544 784 544 c 0
 836.185030081 544 873.090349882 573.148665911 902.5 595.5 c 0
 910.833333333 601.833333333 917.666666667 605 923 605 c 0
 934.333333333 605 940 599.333333333 940 588 c 0
 940 582 937.666666667 575.666666667 933 569 c 0
 869.118201861 474.278713104 789.508534825 379 635 379 c 0x80
 560.136076528 379 484.089994669 412.522102767 420.5 435.5 c 0
 352.042235326 460.236839336 269.391631992 492 184 492 c 0x40
EndSplineSet
EndChar

StartChar: hungarumlaut
Encoding: 733 733 304
Width: 1822
Flags: W
HStem: 1406 234<525.693 689.519 1016.69 1180.52>
LayerCount: 2
Fore
SplineSet
638 1640 m 0
 698.783994441 1640 744 1598.78962403 744 1539 c 0
 744 1489.2752107 709.017153729 1458.00857686 669 1438 c 1
 652.428722455 1424.19060205 616.705610588 1415.83102311 589 1406 c 0
 474.226903542 1365.27406255 373.741022645 1334.27032194 249 1295 c 0
 241.666666667 1293 235.666666667 1292 231 1292 c 0
 213.666666667 1292 205 1298.33333333 205 1311 c 0
 205 1320.33333333 211.333333333 1330.33333333 224 1341 c 2
 241.5 1357 l 2
 337.725541503 1444.97763795 446.648091697 1551.6433136 562 1620 c 0
 583.790367956 1631.98470238 608.510920605 1640 638 1640 c 0
1129 1640 m 0
 1189.78399444 1640 1235 1598.78962403 1235 1539 c 0
 1235 1489.2752107 1200.01715373 1458.00857686 1160 1438 c 1
 1143.42872245 1424.19060205 1107.70561059 1415.83102311 1080 1406 c 0
 965.226903542 1365.27406255 864.741022645 1334.27032194 740 1295 c 0
 732.666666667 1293 726.666666667 1292 722 1292 c 0
 704.666666667 1292 696 1298.33333333 696 1311 c 0
 696 1320.33333333 702.333333333 1330.33333333 715 1341 c 2
 732.5 1357 l 2
 828.725541503 1444.97763795 937.648091697 1551.6433136 1053 1620 c 0
 1074.79036796 1631.98470238 1099.51092061 1640 1129 1640 c 0
EndSplineSet
EndChar

StartChar: endash
Encoding: 8211 8211 308
Width: 1217
Flags: W
HStem: 568 186<175 1086>
LayerCount: 2
Fore
SplineSet
1086 568 m 1
 175 568 l 1
 175 754 l 1
 1086 754 l 1
 1086 568 l 1
EndSplineSet
EndChar

StartChar: emdash
Encoding: 8212 8212 309
Width: 2103
Flags: W
HStem: 568 186<175 1928>
LayerCount: 2
Fore
SplineSet
1928 754 m 1
 1928 568 l 1
 175 568 l 1
 175 754 l 1
 1928 754 l 1
EndSplineSet
EndChar

StartChar: quoteleft
Encoding: 8216 8216 310
Width: 710
Flags: W
HStem: 1484 68<416.765 507>
LayerCount: 2
Fore
SplineSet
364 1325 m 1
 455.434796889 1313.84941501 523 1259.77309072 523 1160 c 0
 523 1078.25408073 478.985284345 1020.80813999 422.5 993 c 0
 400.833333333 982.333333333 376 977 348 977 c 0
 230.197007935 977 152 1061.8153106 152 1181 c 0
 152 1350.64337262 245.022836356 1468.50267188 364 1522.5 c 0
 407.333333333 1542.16666667 455 1552 507 1552 c 1
 507 1484 l 1
 420.282052283 1484 364 1413.60852207 364 1325 c 1
EndSplineSet
EndChar

StartChar: quoteright
Encoding: 8217 8217 311
Width: 711
Flags: W
HStem: 977 68<168 258.235> 1532 20G<313 385.901>
LayerCount: 2
Fore
SplineSet
311 1204 m 1
 219.112201108 1212.96466331 152 1270.73316533 152 1369 c 0
 152 1450.74591927 196.014715655 1508.19186001 252.5 1536 c 0
 274.166666667 1546.66666667 299 1552 327 1552 c 0
 444.802992065 1552 523 1467.1846894 523 1348 c 0
 523 1178.35662738 429.977163644 1060.49732812 311 1006.5 c 0
 267.666666667 986.833333333 220 977 168 977 c 1
 168 1045 l 1
 254.717947717 1045 311 1115.39147793 311 1204 c 1
EndSplineSet
EndChar

StartChar: quotesinglbase
Encoding: 8218 8218 312
Width: 648
Flags: W
VStem: 127 396<-28.7534 279.778>
LayerCount: 2
Fore
SplineSet
322 -400 m 0
 293.13676991 -400 271.032158379 -379.128633517 265 -355 c 1
 265 -357 l 1
 225.589173184 -204.283046086 165.825745572 -47.8351642555 135 114 c 0
 129.666666667 142 127 165 127 183 c 0
 127 286.361125349 217.168425344 336 320 336 c 256
 403.89287106 336 471.338474311 303.379189613 504.5 250.5 c 0
 516.833333333 230.833333333 523 207.666666667 523 181 c 0
 523 129.436267686 504.656503046 68.7118864221 491 17.5 c 0
 457.635565781 -107.61662832 411.956466562 -238.152367032 378 -357 c 0
 371.924139517 -378.87309774 349.006515956 -400 322 -400 c 0
EndSplineSet
EndChar

StartChar: quotedblleft
Encoding: 8220 8220 313
Width: 1272
Flags: W
HStem: 1484 68<416.765 507 941.765 1032>
LayerCount: 2
Fore
SplineSet
889 1325 m 1
 980.434796889 1313.84941501 1048 1259.77309072 1048 1160 c 0
 1048 1078.25408073 1003.98528435 1020.80813999 947.5 993 c 0
 925.833333333 982.333333333 901 977 873 977 c 0
 755.197007935 977 677 1061.8153106 677 1181 c 0
 677 1350.64337262 770.022836356 1468.50267188 889 1522.5 c 0
 932.333333333 1542.16666667 980 1552 1032 1552 c 1
 1032 1484 l 1
 945.282052283 1484 889 1413.60852207 889 1325 c 1
364 1325 m 1
 455.434796889 1313.84941501 523 1259.77309072 523 1160 c 0
 523 1078.25408073 478.985284345 1020.80813999 422.5 993 c 0
 400.833333333 982.333333333 376 977 348 977 c 0
 230.197007935 977 152 1061.8153106 152 1181 c 0
 152 1350.64337262 245.022836356 1468.50267188 364 1522.5 c 0
 407.333333333 1542.16666667 455 1552 507 1552 c 1
 507 1484 l 1
 420.282052283 1484 364 1413.60852207 364 1325 c 1
EndSplineSet
EndChar

StartChar: quotedblright
Encoding: 8221 8221 314
Width: 1272
Flags: W
HStem: 977 68<240 330.235 762 852.235> 1532 20G<385 457.901 907 979.901>
LayerCount: 2
Fore
SplineSet
905 1204 m 1
 813.112201108 1212.96466331 746 1270.73316533 746 1369 c 0
 746 1450.74591927 790.014715655 1508.19186001 846.5 1536 c 0
 868.166666667 1546.66666667 893 1552 921 1552 c 0
 1038.80299206 1552 1117 1467.1846894 1117 1348 c 0
 1117 1178.35662738 1023.97716364 1060.49732812 905 1006.5 c 0
 861.666666667 986.833333333 814 977 762 977 c 1
 762 1045 l 1
 848.717947717 1045 905 1115.39147793 905 1204 c 1
383 1204 m 1
 291.112201108 1212.96466331 224 1270.73316533 224 1369 c 0
 224 1450.74591927 268.014715655 1508.19186001 324.5 1536 c 0
 346.166666667 1546.66666667 371 1552 399 1552 c 0
 516.802992065 1552 595 1467.1846894 595 1348 c 0
 595 1178.35662738 501.977163644 1060.49732812 383 1006.5 c 0
 339.666666667 986.833333333 292 977 240 977 c 1
 240 1045 l 1
 326.717947717 1045 383 1115.39147793 383 1204 c 1
EndSplineSet
EndChar

StartChar: quotedblbase
Encoding: 8222 8222 315
Width: 1707
Flags: W
HStem: -275 575<266.791 319.245 581.791 634.245>
VStem: 189 209<-76.2797 281.506> 259.5 57.5<-273.905 -119.419> 504 209<-76.9266 281.506> 574 59<-273.905 -113.845>
LayerCount: 2
Fore
SplineSet
293 300 m 0xc0
 359.115396459 300 398 248.128658946 398 180 c 0xc0
 398 144.885424287 387.39279992 98.7742495773 380 59.5 c 0
 361.153846655 -40.6201896446 338.765147394 -152.684361293 317 -247 c 0
 314.150100292 -260.299531969 307.12193456 -275 294 -275 c 0
 269.179508482 -275 266.491425822 -231.728368671 259.5 -200.5 c 0xa0
 236.147348038 -96.1914879034 210.534487798 25.8723805316 194 135 c 0
 190.666666667 157 189 172 189 180 c 0
 189 247.930360332 226.827542759 300 293 300 c 0xc0
608 300 m 0
 674.115396459 300 713 248.128658946 713 180 c 0x90
 713 144.885424287 702.39279992 98.7742495773 695 59.5 c 0
 676.250944288 -40.1043584687 654.700521996 -152.964404683 633 -247 c 0
 629.302975817 -259.93958464 622.233784808 -275 609 -275 c 0
 584.678801333 -275 580.524865037 -231.726139818 574 -200.5 c 0x88
 552.030102927 -95.3583497233 525.541298897 25.8274272811 509 135 c 0
 505.666666667 157 504 172 504 180 c 0x90
 504 247.930360332 541.827542759 300 608 300 c 0
EndSplineSet
EndChar

StartChar: dagger
Encoding: 8224 8224 316
Width: 952
Flags: W
HStem: 865 219<46.0979 347.071 607.954 905.903> 1532 20G<441.191 510.807>
VStem: 357 238<31.9663 592.196 1174.8 1523.3>
LayerCount: 2
Fore
SplineSet
595 146 m 1
 595 64.4289403059 557.828576714 8 476 8 c 256
 394.169635226 8 357 64.4279885643 357 146 c 1
 378.32088987 412.51112338 406.992327603 674.677591756 435 939 c 1
 345.681537822 907.475836878 248.099490558 865 132 865 c 0
 71.1554171335 865 27 910.580434738 27 973 c 0
 27 1036.4138268 68.2449839817 1084 131 1084 c 0
 250.111569326 1084 348.173696947 1038.4833039 440 1007 c 1
 410.111433965 1129.40079424 383.22652588 1239.94785329 367.5 1372.5 c 0
 365.166666667 1392.16666667 364 1409.33333333 364 1424 c 0
 364 1496.3339636 406.38268856 1552 476 1552 c 256
 545.613386582 1552 588 1496.32295395 588 1424 c 0
 588 1335.39028664 566.006642485 1249.74654921 550 1172 c 0
 538.666666667 1119.33333333 526 1064.33333333 512 1007 c 1
 583.946417427 1032.39285321 662.059641464 1061.13618277 744 1076.5 c 0
 770.666666667 1081.5 796.333333333 1084 821 1084 c 0
 883.756714739 1084 925 1036.41085261 925 973 c 0
 925 910.56760142 880.854381333 865 820 865 c 0
 703.913855215 865 606.311371522 907.478339463 517 939 c 1
 543.262761946 674.621529742 568.519473886 410.805261139 595 146 c 1
EndSplineSet
EndChar

StartChar: daggerdbl
Encoding: 8225 8225 317
Width: 1235
Flags: W
HStem: 381 238<126.672 428.753 790.443 1097.33> 895 239<128.907 433.014 797.093 1095.09> 1532 20G<565.953 658.044>
VStem: 450 324<2.51761 317.35 1195.93 1510.73> 541 142<535 979>
LayerCount: 2
Fore
SplineSet
774 108 m 0xf0
 774 15.0616938432 703.042000559 -38 612 -38 c 256
 520.961414134 -38 450 15.0687834881 450 108 c 0xf0
 450 168.524133561 467.488137953 228.870468056 483 281.5 c 0
 501.031335142 342.677744232 523.232492595 406.86382109 541 467 c 1
 467.675612436 438.484960392 390.009204651 407.351955988 306 389.5 c 0
 279.333333333 383.833333333 253 381 227 381 c 0
 154.970024161 381 103 427.825874396 103 500 c 256
 103 573.259017225 155.016439967 619 228 619 c 0
 348.074717482 619 449.598203923 568.949238543 541 535 c 1
 541 979 l 1
 448.823192577 944.7629001 349.705418414 895 228 895 c 0
 156.523531404 895 103 941.277898786 103 1013 c 0
 103 1084.14407254 156.266486132 1134 227 1134 c 0
 350.492721783 1134 447.255830855 1080.85206108 541 1047 c 1xe8
 514.265786126 1135.42855358 479.791540405 1229.01812865 459.5 1323 c 0
 453.166666667 1352.33333333 450 1379.33333333 450 1404 c 0
 450 1497.69688076 519.906148901 1552 612 1552 c 256
 704.088668587 1552 774 1497.6907663 774 1404 c 0xf0
 774 1343.69534312 756.560595688 1284.23914267 741 1232 c 0
 723.109787602 1171.94000124 700.767173907 1105.76834446 683 1047 c 1
 757.741832918 1073.99010633 834.00612653 1107.76671791 918.5 1125.5 c 0
 945.5 1131.16666667 971.666666667 1134 997 1134 c 0
 1067.73275491 1134 1121 1084.14064107 1121 1013 c 0
 1121 941.273784715 1067.47240662 895 996 895 c 0
 874.024131049 895 775.366730278 944.692357325 683 979 c 1
 683 535 l 1
 755.407348442 562.68516264 835.659366846 593.113694276 918.5 610.5 c 0
 945.5 616.166666667 971.333333333 619 996 619 c 0
 1068.98473364 619 1121 573.256368482 1121 500 c 256
 1121 427.821664428 1069.02693158 381 997 381 c 0
 874.741688283 381 774.766937652 431.31285758 683 467 c 1xe8
 709.475787422 377.389642572 744.157261818 284.789668325 764.5 189.5 c 0
 770.833333333 159.833333333 774 132.666666667 774 108 c 0xf0
EndSplineSet
EndChar

StartChar: bullet
Encoding: 8226 8226 318
Width: 1327
Flags: W
HStem: 190 998<393.171 935.436>
VStem: 154 1020<435.149 945.618>
LayerCount: 2
Fore
SplineSet
683 1188 m 0
 1022.07652999 1188 1174 1029.8908484 1174 691 c 256
 1174 351.236592617 1021.40297833 190 681 190 c 0
 417.32837818 190 249.146809746 258.886440943 185 456.5 c 0
 164.333333333 520.166666667 154 598.333333333 154 691 c 256
 154 954.898096209 240.482160566 1109.18889542 448.5 1162.5 c 0
 514.833333333 1179.5 593 1188 683 1188 c 0
EndSplineSet
EndChar

StartChar: ellipsis
Encoding: 8230 8230 319
Width: 1821
Flags: W
HStem: -37 308<191.046 419.465 798.046 1026.46 1405.05 1633.46>
VStem: 147 314<5.52749 228.66> 754 314<5.52749 228.66> 1361 314<5.52749 228.66>
CounterMasks: 1 70
LayerCount: 2
Fore
SplineSet
304 -37 m 0
 212.122711649 -37 147 25.0733099268 147 117 c 256
 147 209.426377317 210.459627109 271 303 271 c 256
 396.029052734 271 461 210.101534983 461 117 c 256
 461 24.4021341148 396.502509323 -37 304 -37 c 0
911 -37 m 0
 819.122711649 -37 754 25.0733099268 754 117 c 256
 754 209.426377317 817.459627109 271 910 271 c 256
 1003.02905273 271 1068 210.101534983 1068 117 c 256
 1068 24.4021341148 1003.50250932 -37 911 -37 c 0
1518 -37 m 0
 1426.12271165 -37 1361 25.0733099268 1361 117 c 256
 1361 209.426377317 1424.45962711 271 1517 271 c 256
 1610.02905273 271 1675 210.101534983 1675 117 c 256
 1675 24.4021341148 1610.50250932 -37 1518 -37 c 0
EndSplineSet
EndChar

StartChar: guilsinglleft
Encoding: 8249 8249 320
Width: 1849
Flags: W
VStem: 302 634
LayerCount: 2
Fore
SplineSet
867 1254 m 0
 906.388021278 1254 936 1224.48093221 936 1187 c 0
 936 1157.76389809 922.05966301 1137.92666002 910 1116 c 1
 543 716 l 1
 910 316 l 1
 922.12415521 295.058277365 936 273.896625091 936 245 c 0
 936 206.697457166 906.898111287 178 867 178 c 0
 837.430384752 178 814.552309366 186.721627581 796 202 c 2
 369 574 l 2
 332.305657073 606.246543785 302 653.763004 302 716 c 256
 302 778.813130993 331.286983665 825.833015479 369 858 c 2
 796 1229 l 1
 818.976211202 1244.31747413 835.225734361 1254 867 1254 c 0
EndSplineSet
EndChar

StartChar: guilsinglright
Encoding: 8250 8250 321
Width: 1849
Flags: W
VStem: 302 634
LayerCount: 2
Fore
SplineSet
371 178 m 0
 331.089466286 178 302 206.687102632 302 245 c 0
 302 273.852724713 315.900331431 295.100572471 328 316 c 1
 695 716 l 1
 328 1116 l 1
 315.916427183 1137.97013239 302 1157.71945179 302 1187 c 0
 302 1224.46801862 331.627162167 1254 371 1254 c 0
 402.722403946 1254 419.058974794 1244.2940168 442 1229 c 1
 869 858 l 2
 906.770717366 825.783799894 936 778.888483218 936 716 c 256
 936 653.836400338 905.637254096 606.196374812 869 574 c 2
 442 202 l 2
 423.410085551 186.690658689 400.62340121 178 371 178 c 0
EndSplineSet
EndChar

StartChar: Euro
Encoding: 8364 8364 322
Width: 1833
Flags: W
HStem: -36 157<438.891 1067.92> 549 101<0 1000> 823 104<0 1000> 1376 157<436.992 1067.74>
VStem: 147 221<193.187 1303.7> 1126 211<178.321 534 963 1318.76>
LayerCount: 2
Fore
SplineSet
1000 650 m 1
 1000 549 l 1
 0 549 l 1
 0 650 l 1
 1000 650 l 1
0 823 m 1
 -0 857.666666667 0 892.333333333 0 927 c 1
 1000 928 l 1
 1000 824 l 1
 0 823 l 1
1337 534 m 1
 1337 324.951940085 1325.14937855 137.380875065 1216 46 c 0
 1119.09826283 -35.1270357708 955.158513986 -36 772 -36 c 0
 567.611640504 -36 388.906945108 -35.7557875902 280 55 c 0
 160.313389252 154.73884229 147 364.485774681 147 594 c 2
 147 903 l 2
 147 1133.85897129 159.15532358 1341.29610298 280 1442 c 0
 387.880870775 1531.90072565 568.395754098 1533 772 1533 c 0
 955.892016252 1533 1118.1950768 1532.88319152 1216 1451 c 0
 1324.10584074 1360.4927845 1337 1170.81546487 1337 963 c 1
 1126 963 l 1
 1124.90015662 1076.28386813 1129.29564194 1169.84004707 1111 1254 c 0
 1090.75499945 1347.12700252 1030.72590314 1370.30913656 920 1374 c 0
 880 1375.33333333 830.666666667 1376 772 1376 c 0
 629.977022659 1376 484.705982957 1391.18859242 420.5 1316.5 c 0
 380.948161374 1270.49071833 373.310669218 1193.06568266 370.5 1102 c 0
 368.833333333 1048 368 981.666666667 368 903 c 2
 368 594 l 2
 368 463.860941715 363.548893387 357.146356276 384.5 261.5 c 0
 407.828010355 155.002561424 475.5889944 126.693072626 603 123 c 0
 649 121.666666667 705.333333333 121 772 121 c 0
 895.777740023 121 1023.09179052 108.220877572 1079.5 172.5 c 0
 1114.28050158 212.133594828 1120.76004349 280.481543798 1123 360 c 0
 1124.33333333 407.333333333 1125.33333333 465.333333333 1126 534 c 1
 1337 534 l 1
EndSplineSet
EndChar

StartChar: trademark
Encoding: 8482 8482 323
Width: 2146
Flags: W
HStem: 1400 121<156 325 482 652>
VStem: 325 157<643 1400> 748 165<643 1116> 1326 165<643 1116>
LayerCount: 2
Fore
SplineSet
652 1521 m 1
 652 1400 l 1
 482 1400 l 1
 482 643 l 1
 325 643 l 1
 325 1400 l 1
 156 1400 l 1
 156 1521 l 1
 652 1521 l 1
1060 643 m 1
 913 1116 l 1
 913 643 l 1
 748 643 l 1
 748 1521 l 1
 962 1521 l 1
 1120 960 l 1
 1280 1521 l 1
 1491 1521 l 1
 1491 643 l 1
 1326 643 l 1
 1326 1116 l 1
 1177 643 l 1
 1060 643 l 1
EndSplineSet
EndChar

StartChar: exclam
Encoding: 33 33 324
Width: 815
Flags: W
HStem: -38 312<288.741 527.599>
VStem: 242 330<7.33639 228.861> 283 251<904.904 1521.9> 372 78.5<537.995 824.77>
LayerCount: 2
Fore
SplineSet
572 118 m 256xc0
 572 22.1405084883 501.637713396 -38 406 -38 c 256
 311.649762804 -38 242 23.9932641535 242 118 c 256
 242 212.518024041 311.975205157 274 406 274 c 256
 501.639710801 274 572 213.857049652 572 118 c 256xc0
404 1556 m 0
 488.744938359 1556 534 1485.61066145 534 1401 c 0xa0
 534 1259.32897186 511.213718511 1107.80895401 496.5 969.5 c 0
 483.739241694 849.548871927 468.464924428 723.553381098 450.5 613 c 0
 443.791451687 571.716625769 443.515814754 558.354419672 427.5 537 c 0
 422.5 530.333333333 415.333333333 527 406 527 c 0
 392.622053599 527 375.60843056 548.377518508 372 558 c 0x90
 358.00375132 589.49155953 355.192758995 648.400267966 349 697.5 c 0
 323.12923834 902.618181731 300.698274796 1128.37501546 286 1341.5 c 0
 284 1370.5 283 1391 283 1403 c 0xa0
 283 1482.73918182 323.924078606 1556 404 1556 c 0
EndSplineSet
EndChar

StartChar: commaaccent.001
Encoding: 65538 -1 325
Width: 711
Flags: W
HStem: -706 68<202 292.235>
LayerCount: 2
Fore
SplineSet
345 -479 m 1
 253.112201108 -470.035336694 186 -412.266834668 186 -314 c 0
 186 -232.254080735 230.014715655 -174.808139985 286.5 -147 c 0
 308.166666667 -136.333333333 333 -131 361 -131 c 0
 478.802992065 -131 557 -215.815310603 557 -335 c 0
 557 -504.643372623 463.977163644 -622.502671885 345 -676.5 c 0
 301.666666667 -696.166666667 254 -706 202 -706 c 1
 202 -638 l 1
 288.717947717 -638 345 -567.608522069 345 -479 c 1
EndSplineSet
EndChar

StartChar: commaaccent
Encoding: 65539 -1 326
Width: 712
Flags: W
HStem: -706 68<202 292.235>
LayerCount: 2
Fore
SplineSet
345 -479 m 1
 253.112201108 -470.035336694 186 -412.266834668 186 -314 c 0
 186 -232.254080735 230.014715655 -174.808139985 286.5 -147 c 0
 308.166666667 -136.333333333 333 -131 361 -131 c 0
 478.802992065 -131 557 -215.815310603 557 -335 c 0
 557 -504.643372623 463.977163644 -622.502671885 345 -676.5 c 0
 301.666666667 -696.166666667 254 -706 202 -706 c 1
 202 -638 l 1
 288.717947717 -638 345 -567.608522069 345 -479 c 1
EndSplineSet
EndChar

StartChar: quotedbl
Encoding: 34 34 328
Width: 1219
Flags: W
HStem: 925 575<515.791 568.245 830.791 883.245>
VStem: 438 209<1123.72 1481.51> 508 58<926.095 1084.49> 753 209<1123.07 1481.51> 823 59<926.095 1086.15>
LayerCount: 2
Fore
SplineSet
542 1500 m 0xc0
 608.115396459 1500 647 1448.12865895 647 1380 c 0xc0
 647 1344.88542429 636.39279992 1298.77424958 629 1259.5 c 0
 610.153846655 1159.37981036 587.765147394 1047.31563871 566 953 c 0
 563.150100292 939.700468031 556.12193456 925 543 925 c 0
 518.678801333 925 514.524865037 968.273860182 508 999.5 c 0xa0
 486.030102927 1104.64165028 459.541298897 1225.82742728 443 1335 c 0
 439.666666667 1357 438 1372 438 1380 c 0
 438 1447.93036033 475.827542759 1500 542 1500 c 0xc0
857 1500 m 0
 923.115396459 1500 962 1448.12865895 962 1380 c 0x90
 962 1344.88542429 951.39279992 1298.77424958 944 1259.5 c 0
 925.250944288 1159.89564153 903.700521996 1047.03559532 882 953 c 0
 878.302975817 940.06041536 871.233784808 925 858 925 c 0
 833.678801333 925 829.524865037 968.273860182 823 999.5 c 0x88
 801.030102927 1104.64165028 774.541298897 1225.82742728 758 1335 c 0
 754.666666667 1357 753 1372 753 1380 c 0x90
 753 1447.93036033 790.827542759 1500 857 1500 c 0
EndSplineSet
EndChar

StartChar: fraction
Encoding: 8260 8260 329
Width: 728
Flags: W
HStem: 0 21G<-15 131.779> 1479 20G<630.274 781>
LayerCount: 2
Fore
SplineSet
781 1499 m 1
 123 0 l 1
 -15 0 l 1
 639 1499 l 1
 781 1499 l 1
EndSplineSet
EndChar

StartChar: florin
Encoding: 402 402 330
Width: 698
Flags: W
HStem: -312 167<-18.271 196.577> -294 149<-21 158.963> 736 119<18 201 418 636> 1412 167<419.054 637.271> 1412 149<460.037 640>
VStem: 201 217<-143.324 736 855 1411.14>
LayerCount: 2
Fore
SplineSet
457 1579 m 0x74
 521.860650889 1579 581.808980683 1569.85515511 640 1561 c 1
 640 1412 l 1
 418 1412 l 1
 418 855 l 1
 636 855 l 1
 636 736 l 1
 418 736 l 1
 418 -50 l 2
 418 -123.922381895 416.478192962 -187.282710558 386 -233 c 0
 346.772381779 -291.841427331 271.029815076 -312 162 -312 c 0xac
 97.1393491108 -312 37.1910193172 -302.855155113 -21 -294 c 1
 -21 -145 l 1
 201 -145 l 1
 201 736 l 1
 18 736 l 1
 18 855 l 1
 201 855 l 1
 199 1271 l 2
 199 1412.6869203 215.544077954 1509.55880521 314 1555 c 0
 348.666666667 1571 396.333333333 1579 457 1579 c 0x74
EndSplineSet
EndChar

StartChar: periodcentered
Encoding: 183 183 331
Width: 607
Flags: W
HStem: 528 308<191.046 419.465>
VStem: 147 314<570.527 793.66>
LayerCount: 2
Fore
SplineSet
304 528 m 0
 212.122711649 528 147 590.073309927 147 682 c 256
 147 774.426377317 210.459627109 836 303 836 c 256
 396.029052734 836 461 775.101534983 461 682 c 256
 461 589.402134115 396.502509323 528 304 528 c 0
EndSplineSet
EndChar

StartChar: fi
Encoding: 64257 64257 332
Width: 1303
Flags: W
HStem: 0 21G<244 461 926 1145> 1028 119<101 244 461 926> 1384 187<926 1145> 1412 167<463.971 699.96> 1412 149<503.35 703>
VStem: 244 217<0 1028 1147 1409.76> 926 219<0 1028 1384 1571>
LayerCount: 2
Fore
SplineSet
500 1579 m 0xd6
 571.55276442 1579 638.173479827 1569.89775767 703 1561 c 1
 703 1412 l 1
 461 1412 l 1xce
 461 1147 l 1
 1145 1147 l 1
 1145 0 l 1
 926 0 l 1
 926 1028 l 1
 461 1028 l 1
 461 0 l 1
 244 0 l 1
 244 1028 l 1
 101 1028 l 1
 101 1147 l 1
 244 1147 l 1
 244 1289.63855225 217.455788186 1459.97076528 299.5 1530.5 c 0
 343.629509911 1568.43589449 411.739726044 1579 500 1579 c 0xd6
1145 1384 m 1xe6
 926 1384 l 1
 926 1571 l 1
 1145 1571 l 1
 1145 1384 l 1xe6
EndSplineSet
EndChar

StartChar: fl
Encoding: 64258 64258 333
Width: 1306
Flags: W
HStem: 0 21G<244 461 916 1133.01> 1028 119<101 244 461 679> 1412 167<464.651 916>
VStem: 244 217<0 1028 1147 1407.88> 916 217<0 1412>
LayerCount: 2
Fore
SplineSet
244 1147 m 1
 244 1195.813429 241 1248.08911211 241 1296 c 0
 241 1488.67705293 303.145208337 1579 500 1579 c 0
 681.821933096 1579 892.744473807 1574.5436493 1070 1565.5 c 0
 1102.66666667 1563.83333333 1124 1562.33333333 1134 1561 c 1
 1133 0 l 1
 916 0 l 1
 916 1412 l 1
 461 1412 l 1
 461 1147 l 1
 679 1147 l 1
 679 1028 l 1
 461 1028 l 1
 461 0 l 1
 244 0 l 1
 244 1028 l 1
 101 1028 l 1
 101 1147 l 1
 244 1147 l 1
EndSplineSet
EndChar
